<svg width="173" height="56" viewBox="0 0 173 56" fill="none" xmlns="http://www.w3.org/2000/svg">
<path d="M29.69 16.5C29.46 16.5 29.27 16.31 29.27 16.08C29.27 15.85 29.46 15.66 29.69 15.66C29.92 15.66 30.11 15.85 30.11 16.08C30.11 16.31 29.92 16.5 29.69 16.5ZM4.87 35.89C4.87 26.62 12.49 19.08 21.8 19.08C31.11 19.08 38.73 26.62 38.73 35.89C38.73 45.14 31.11 52.7 21.8 52.7C12.49 52.7 4.87 45.13 4.87 35.89V35.89ZM28.44 10.23C28.84 10.33 29.09 10.74 28.98 11.14C28.88 11.54 28.47 11.78 28.06 11.68C27.66 11.58 27.41 11.17 27.52 10.77C27.62 10.37 28.03 10.13 28.44 10.23ZM29.12 8.76C29.35 8.76 29.54 8.95 29.54 9.18C29.54 9.41 29.35 9.6 29.12 9.6C28.89 9.6 28.7 9.41 28.7 9.18C28.7 8.95 28.89 8.76 29.12 8.76ZM28.77 7.26C29 7.26 29.19 7.45 29.19 7.68C29.19 7.91 29 8.1 28.77 8.1C28.54 8.1 28.35 7.91 28.35 7.68C28.35 7.45 28.54 7.26 28.77 7.26ZM33.98 11.2C34.21 11.2 34.4 11.39 34.4 11.62C34.4 11.85 34.21 12.04 33.98 12.04C33.75 12.04 33.56 11.85 33.56 11.62C33.56 11.39 33.74 11.2 33.98 11.2ZM33.63 9.71C33.86 9.71 34.05 9.9 34.05 10.13C34.05 10.36 33.86 10.55 33.63 10.55C33.4 10.55 33.21 10.36 33.21 10.13C33.21 9.9 33.4 9.71 33.63 9.71ZM33 8.4C33.23 8.4 33.42 8.59 33.42 8.82C33.42 9.05 33.23 9.23 33 9.23C32.77 9.23 32.58 9.04 32.58 8.81C32.58 8.58 32.77 8.4 33 8.4ZM32.01 7.24C32.24 7.24 32.43 7.43 32.43 7.66C32.43 7.89 32.24 8.08 32.01 8.08C31.78 8.08 31.59 7.89 31.59 7.66C31.59 7.43 31.77 7.24 32.01 7.24ZM30.78 6.35C31.01 6.35 31.2 6.54 31.2 6.77C31.2 7 31.01 7.19 30.78 7.19C30.55 7.19 30.36 7 30.36 6.77C30.36 6.54 30.55 6.35 30.78 6.35ZM29.46 5.84C29.69 5.84 29.88 6.03 29.88 6.26C29.88 6.49 29.69 6.68 29.46 6.68C29.23 6.68 29.04 6.49 29.04 6.26C29.04 6.03 29.23 5.84 29.46 5.84ZM28.12 5.95C28.35 5.95 28.54 6.14 28.54 6.37C28.54 6.6 28.35 6.79 28.12 6.79C27.89 6.79 27.7 6.6 27.7 6.37C27.6986 6.31447 27.7086 6.25924 27.7292 6.20767C27.7498 6.15609 27.7807 6.10924 27.82 6.06996C27.8592 6.03069 27.9061 5.9998 27.9577 5.97918C28.0092 5.95856 28.0645 5.94863 28.12 5.95V5.95ZM27.13 4.82C27.36 4.82 27.55 5.01 27.55 5.24C27.55 5.47 27.36 5.66 27.13 5.66C26.9 5.66 26.71 5.47 26.71 5.24C26.71 5.01 26.9 4.82 27.13 4.82ZM25.84 3.97C26.07 3.97 26.26 4.16 26.26 4.39C26.26 4.62 26.07 4.81 25.84 4.81C25.61 4.81 25.42 4.62 25.42 4.39C25.42 4.16 25.61 3.97 25.84 3.97V3.97ZM24.5 3.48C24.73 3.48 24.92 3.67 24.92 3.9C24.92 4.13 24.73 4.32 24.5 4.32C24.27 4.32 24.08 4.13 24.08 3.9C24.08 3.66 24.27 3.48 24.5 3.48ZM23.13 3.24C23.36 3.24 23.55 3.43 23.55 3.66C23.55 3.89 23.36 4.08 23.13 4.08C22.9 4.08 22.71 3.89 22.71 3.66C22.71 3.43 22.9 3.24 23.13 3.24ZM10.14 14.22C9.77 14.42 9.30999 14.29 9.10999 13.93C8.90999 13.57 9.04 13.11 9.41 12.91C9.78 12.71 10.24 12.84 10.44 13.21C10.64 13.57 10.51 14.02 10.14 14.22V14.22ZM15.53 11.68C15.3365 11.7288 15.1315 11.6996 14.9593 11.5985C14.7872 11.4975 14.6617 11.3328 14.61 11.14C14.51 10.74 14.75 10.33 15.15 10.23C15.55 10.13 15.97 10.37 16.07 10.77C16.18 11.17 15.94 11.58 15.53 11.68V11.68ZM21.8 10.9C21.38 10.9 21.04 10.56 21.04 10.15C21.04 9.74 21.38 9.4 21.8 9.4C22.22 9.4 22.56 9.74 22.56 10.15C22.5548 10.349 22.4728 10.5383 22.3311 10.6781C22.1894 10.818 21.9991 10.8975 21.8 10.9ZM14.47 9.59C14.24 9.59 14.05 9.4 14.05 9.17C14.05 8.94 14.24 8.75 14.47 8.75C14.7 8.75 14.89 8.94 14.89 9.17C14.89 9.41 14.7 9.59 14.47 9.59ZM14.82 8.1C14.59 8.1 14.4 7.91 14.4 7.68C14.4 7.45 14.59 7.26 14.82 7.26C15.05 7.26 15.24 7.45 15.24 7.68C15.24 7.91 15.05 8.1 14.82 8.1ZM9.62 12.04C9.39 12.04 9.2 11.85 9.2 11.62C9.2 11.39 9.39 11.2 9.62 11.2C9.85 11.2 10.04 11.39 10.04 11.62C10.04 11.85 9.85 12.04 9.62 12.04ZM9.97 10.54C9.74 10.54 9.55 10.35 9.55 10.12C9.55 9.89 9.74 9.7 9.97 9.7C10.2 9.7 10.39 9.89 10.39 10.12C10.39 10.36 10.2 10.54 9.97 10.54ZM10.59 9.23C10.36 9.23 10.17 9.04 10.17 8.81C10.17 8.58 10.36 8.39 10.59 8.39C10.82 8.39 11.01 8.58 11.01 8.81C11.01 9.04 10.83 9.23 10.59 9.23ZM11.59 8.07C11.36 8.07 11.17 7.88 11.17 7.65C11.17 7.42 11.36 7.23 11.59 7.23C11.82 7.23 12.01 7.42 12.01 7.65C12.01 7.88 11.82 8.07 11.59 8.07ZM12.82 7.19C12.59 7.19 12.4 7 12.4 6.77C12.4 6.54 12.59 6.35 12.82 6.35C13.05 6.35 13.24 6.54 13.24 6.77C13.24 7 13.05 7.19 12.82 7.19ZM14.13 6.67C13.9 6.67 13.71 6.48 13.71 6.25C13.71 6.02 13.9 5.83 14.13 5.83C14.36 5.83 14.55 6.02 14.55 6.25C14.56 6.49 14.37 6.67 14.13 6.67ZM15.48 6.79C15.25 6.79 15.06 6.6 15.06 6.37C15.06 6.14 15.25 5.95 15.48 5.95C15.71 5.95 15.9 6.14 15.9 6.37C15.9 6.6 15.71 6.79 15.48 6.79ZM16.47 5.66C16.24 5.66 16.05 5.47 16.05 5.24C16.05 5.01 16.24 4.82 16.47 4.82C16.7 4.82 16.89 5.01 16.89 5.24C16.8875 5.35059 16.8424 5.45595 16.7642 5.53417C16.6859 5.61239 16.5806 5.65746 16.47 5.66ZM17.75 4.81C17.52 4.81 17.33 4.62 17.33 4.39C17.33 4.16 17.52 3.97 17.75 3.97C17.98 3.97 18.17 4.16 18.17 4.39C18.17 4.62 17.99 4.81 17.75 4.81ZM19.09 4.31C18.86 4.31 18.67 4.12 18.67 3.89C18.67 3.66 18.86 3.47 19.09 3.47C19.32 3.47 19.51 3.66 19.51 3.89C19.51 4.13 19.32 4.31 19.09 4.31ZM21.8 8.4C21.57 8.4 21.38 8.21 21.38 7.98C21.38 7.75 21.57 7.56 21.8 7.56C22.03 7.56 22.22 7.75 22.22 7.98C22.22 8.21 22.03 8.4 21.8 8.4ZM21.8 6.89C21.57 6.89 21.38 6.7 21.38 6.47C21.38 6.24 21.57 6.05 21.8 6.05C22.03 6.05 22.22 6.24 22.22 6.47C22.22 6.7 22.03 6.89 21.8 6.89ZM21.8 5.37C21.57 5.37 21.38 5.18 21.38 4.95C21.38 4.72 21.57 4.53 21.8 4.53C22.03 4.53 22.22 4.72 22.22 4.95C22.22 5.19 22.03 5.37 21.8 5.37ZM20.47 4.08C20.24 4.08 20.05 3.89 20.05 3.66C20.05 3.43 20.24 3.24 20.47 3.24C20.7 3.24 20.89 3.43 20.89 3.66C20.8875 3.77059 20.8424 3.87595 20.7642 3.95417C20.6859 4.03239 20.5806 4.07746 20.47 4.08V4.08ZM34.18 12.91C34.55 13.11 34.68 13.56 34.48 13.93C34.28 14.29 33.82 14.42 33.45 14.22C33.09 14.02 32.95 13.56 33.15 13.2C33.35 12.84 33.81 12.71 34.18 12.91ZM24.49 15.1C24.26 15.1 24.07 14.91 24.07 14.68C24.07 14.45 24.26 14.26 24.49 14.26C24.72 14.26 24.91 14.45 24.91 14.68C24.91 14.91 24.73 15.1 24.49 15.1ZM13.9 16.5C13.67 16.5 13.48 16.31 13.48 16.08C13.48 15.85 13.67 15.66 13.9 15.66C14.13 15.66 14.32 15.85 14.32 16.08C14.32 16.31 14.13 16.5 13.9 16.5ZM19.1 15.1C18.87 15.1 18.68 14.91 18.68 14.68C18.68 14.45 18.87 14.26 19.1 14.26C19.33 14.26 19.52 14.45 19.52 14.68C19.52 14.91 19.33 15.1 19.1 15.1Z" fill="white"/>
<path d="M24.92 12.09C25.03 12.34 25.17 12.53 25.34 12.69C24.96 12.63 24.57 12.58 24.18 12.55C24.4 12.43 24.59 12.26 24.73 12.07C24.79 12.08 24.86 12.09 24.92 12.09V12.09ZM18.67 12.09C18.74 12.09 18.8 12.08 18.86 12.07C19.01 12.27 19.2 12.43 19.41 12.55C19.02 12.59 18.64 12.64 18.25 12.69C18.44 12.53 18.58 12.32 18.67 12.09V12.09ZM16.42 13.05C16.08 13.13 15.74 13.21 15.41 13.31C15.59 13.08 15.7 12.8 15.74 12.5C15.92 12.74 16.15 12.93 16.42 13.05ZM12.56 14.3C12.66 14.14 12.74 13.96 12.78 13.77L12.84 13.76C12.94 13.73 13.03 13.69 13.12 13.64C13.28 13.75 13.46 13.83 13.64 13.88C13.27 14.01 12.91 14.15 12.56 14.3V14.3ZM21.8 11.73C21.91 12.01 22.09 12.26 22.33 12.44C22.15 12.44 21.98 12.43 21.8 12.43C21.62 12.43 21.45 12.43 21.27 12.44C21.51 12.26 21.69 12.02 21.8 11.73ZM30.48 13.64C30.56 13.69 30.66 13.74 30.76 13.76L30.82 13.77C30.86 13.96 30.94 14.14 31.04 14.3C30.69 14.15 30.33 14.01 29.96 13.88C30.15 13.82 30.32 13.75 30.48 13.64V13.64ZM28.18 13.3C27.85 13.21 27.51 13.12 27.17 13.04C27.44 12.92 27.68 12.73 27.85 12.49C27.88 12.79 28 13.07 28.18 13.3V13.3ZM29.49 10.04C29.77 9.92 29.99 9.67 30.05 9.36C30.5 9.46 31.01 9.59 31.43 9.75C31.82 9.9 32.13 10.11 32.35 10.3C32.58 10.88 32.71 11.55 32.77 12.36C32.49 12.48 32.32 12.76 32.22 13.04C32.05 13.47 32.05 13.91 32.52 14.24C32.4154 14.2468 32.3105 14.2313 32.2122 14.1947C32.114 14.158 32.0246 14.1009 31.95 14.0273C31.8754 13.9536 31.8172 13.865 31.7793 13.7672C31.7413 13.6694 31.7246 13.5647 31.73 13.46C31.82 13.36 31.88 13.23 31.92 13.09C31.981 12.8473 31.9431 12.5904 31.8146 12.3756C31.6862 12.1609 31.4777 12.006 31.235 11.945C30.9923 11.884 30.7354 11.9219 30.5206 12.0504C30.3059 12.1788 30.151 12.3873 30.09 12.63C30.08 12.69 30.07 12.74 30.06 12.79C29.63 13.31 28.77 13.04 28.73 12.36C29.52 12.52 29.86 12.12 29.99 11.59C30.11 11.14 30.06 10.7 29.54 10.42C29.5508 10.2912 29.5338 10.1616 29.49 10.04V10.04Z" fill="#E62644"/>
<path d="M16.09 8.18C17.59 7.35 19.56 7.2 21.09 7.43V7.54C20.9794 7.70989 20.9366 7.91507 20.9699 8.11502C21.0032 8.31497 21.1103 8.49515 21.27 8.62C20.99 8.72 20.77 8.92 20.68 9.3C20.11 9.44 19.96 9.86 19.96 10.32C19.96 10.87 20.18 11.34 20.99 11.38C21.03 11.4923 21.0426 11.6126 21.0268 11.7307C21.011 11.8489 20.9673 11.9616 20.8992 12.0595C20.8312 12.1574 20.7408 12.2377 20.6355 12.2936C20.5303 12.3496 20.4132 12.3797 20.294 12.3814C20.1748 12.383 20.0569 12.3563 19.9501 12.3033C19.8433 12.2503 19.7506 12.1726 19.6799 12.0767C19.6091 11.9807 19.5622 11.8693 19.5431 11.7516C19.524 11.6339 19.5332 11.5134 19.57 11.4C19.6068 11.26 19.6108 11.1133 19.5816 10.9715C19.5525 10.8297 19.491 10.6965 19.402 10.5824C19.313 10.4682 19.1988 10.3761 19.0684 10.3132C18.9379 10.2504 18.7948 10.2185 18.65 10.22C18.13 10.22 17.71 10.64 17.71 11.16C17.71 11.32 17.75 11.47 17.82 11.61C17.8 11.92 17.58 12.2 17.26 12.29C17.106 12.3281 16.9439 12.3168 16.7967 12.2575C16.6495 12.1983 16.5247 12.0942 16.44 11.96C17.21 11.72 17.31 11.21 17.17 10.68C17.05 10.23 16.8 9.86 16.21 9.87C16.1218 9.68636 15.9736 9.53824 15.79 9.45C15.85 9 15.95 8.58 16.09 8.18V8.18ZM22.5 7.43C24.03 7.21 25.99 7.35 27.5 8.18C27.64 8.58 27.74 9 27.79 9.44C27.62 9.52 27.48 9.66 27.37 9.86C26.78 9.85 26.53 10.22 26.41 10.67C26.27 11.2 26.37 11.71 27.14 11.95C27.146 12.0665 27.1245 12.1828 27.0773 12.2894C27.0301 12.3961 26.9585 12.4902 26.8683 12.5641C26.7781 12.6381 26.6718 12.6898 26.558 12.7152C26.4441 12.7406 26.3259 12.7388 26.2128 12.7102C26.0998 12.6815 25.995 12.6267 25.907 12.5501C25.819 12.4736 25.7502 12.3774 25.7062 12.2694C25.6621 12.1614 25.644 12.0446 25.6534 11.9283C25.6627 11.812 25.6993 11.6996 25.76 11.6C25.83 11.47 25.87 11.32 25.87 11.15C25.87 10.63 25.45 10.21 24.93 10.21C24.7856 10.2097 24.6431 10.2424 24.5133 10.3056C24.3835 10.3688 24.2698 10.4609 24.1811 10.5747C24.0923 10.6886 24.0307 10.8212 24.0011 10.9625C23.9714 11.1038 23.9745 11.2501 24.01 11.39C23.9575 11.5376 23.8601 11.665 23.7315 11.7544C23.6029 11.8438 23.4495 11.8907 23.2928 11.8885C23.1362 11.8863 22.9842 11.8351 22.8582 11.7421C22.7321 11.6491 22.6383 11.519 22.59 11.37C23.4 11.33 23.62 10.86 23.62 10.31C23.62 9.85 23.46 9.43 22.9 9.29C22.81 8.92 22.59 8.71 22.31 8.61C22.4697 8.48515 22.5768 8.30497 22.6101 8.10502C22.6434 7.90507 22.6006 7.69989 22.49 7.53V7.43H22.5ZM12.17 9.75C12.58 9.59 13.1 9.45 13.55 9.36C13.61 9.67 13.82 9.92 14.11 10.04C14.07 10.15 14.05 10.28 14.05 10.42C13.53 10.69 13.49 11.14 13.6 11.59C13.74 12.12 14.07 12.52 14.86 12.36C14.83 13.04 13.96 13.31 13.53 12.79C13.53 12.74 13.52 12.68 13.5 12.63C13.4362 12.3882 13.2798 12.1813 13.0645 12.054C12.8493 11.9268 12.5926 11.8894 12.35 11.95C12.1955 11.9877 12.0532 12.0644 11.9366 12.1726C11.82 12.2808 11.7331 12.4171 11.684 12.5684C11.6349 12.7197 11.6253 12.881 11.6561 13.0371C11.6869 13.1931 11.7571 13.3387 11.86 13.46C11.88 13.74 11.73 14.01 11.47 14.15C11.34 14.22 11.2 14.25 11.06 14.24C11.53 13.91 11.52 13.47 11.36 13.04C11.25 12.76 11.08 12.48 10.8 12.36C10.87 11.55 11 10.88 11.22 10.31C11.47 10.11 11.78 9.91 12.17 9.75V9.75ZM23.14 14.55L21.79 15.05L20.44 14.55L21.79 14.05L23.14 14.55ZM13.02 16.36L12.9 16.83L12.85 17L12.75 16.94L12.31 16.7L12.43 16.25L12.45 16.15L12.61 16.2L13.02 16.36V16.36ZM30.58 16.36L31.15 16.15L31.17 16.25L31.28 16.71L30.84 16.95L30.75 17L30.7 16.83L30.58 16.36V16.36Z" fill="#E62644"/>
<path d="M28.18 13.3C28 13.07 27.89 12.79 27.85 12.49C27.68 12.74 27.44 12.93 27.17 13.04C27.51 13.12 27.85 13.21 28.18 13.3V13.3ZM30.48 13.64C30.32 13.75 30.14 13.83 29.96 13.88C30.32 14.01 30.68 14.15 31.04 14.3C30.94 14.14 30.86 13.96 30.82 13.77L30.76 13.76C30.66 13.73 30.57 13.69 30.48 13.64V13.64ZM21.8 11.73C21.69 12.01 21.51 12.26 21.27 12.44C21.44 12.44 21.62 12.43 21.8 12.43C21.98 12.43 22.15 12.43 22.33 12.44C22.09 12.26 21.91 12.02 21.8 11.73ZM12.56 14.3C12.91 14.15 13.27 14.01 13.64 13.88C13.45 13.83 13.27 13.75 13.12 13.64C13.04 13.69 12.94 13.74 12.84 13.76L12.78 13.77C12.73 13.96 12.66 14.14 12.56 14.3V14.3ZM16.42 13.05C16.15 12.93 15.91 12.74 15.74 12.5C15.71 12.8 15.59 13.08 15.41 13.31C15.75 13.21 16.09 13.12 16.42 13.05ZM18.67 12.09C18.58 12.32 18.44 12.52 18.26 12.69C18.64 12.63 19.03 12.58 19.42 12.55C19.2 12.43 19.01 12.26 18.87 12.07C18.8 12.08 18.74 12.09 18.67 12.09V12.09ZM24.92 12.09C24.86 12.09 24.79 12.08 24.73 12.07C24.58 12.27 24.39 12.43 24.18 12.55C24.57 12.59 24.95 12.64 25.34 12.69C25.17 12.53 25.04 12.34 24.94 12.13L24.92 12.09V12.09ZM34.18 12.91C34.0935 12.8621 33.9983 12.8318 33.9 12.821C33.8017 12.8101 33.7022 12.8189 33.6073 12.8468C33.5124 12.8747 33.424 12.9212 33.3472 12.9836C33.2704 13.0459 33.2068 13.1229 33.16 13.21C32.96 13.57 33.09 14.03 33.46 14.23C33.83 14.43 34.29 14.3 34.49 13.94C34.68 13.56 34.54 13.11 34.18 12.91V12.91ZM28.44 10.23C28.2465 10.1812 28.0415 10.2104 27.8693 10.3115C27.6972 10.4125 27.5717 10.5772 27.52 10.77C27.42 11.17 27.66 11.58 28.06 11.68C28.47 11.78 28.88 11.54 28.98 11.14C29.0286 10.9477 28.999 10.7441 28.8978 10.5735C28.7966 10.403 28.632 10.2795 28.44 10.23ZM29.12 8.76C28.89 8.76 28.7 8.95 28.7 9.18C28.7 9.41 28.89 9.6 29.12 9.6C29.35 9.6 29.54 9.41 29.54 9.18C29.54 8.95 29.36 8.76 29.12 8.76ZM28.77 7.26C28.54 7.26 28.35 7.45 28.35 7.68C28.35 7.91 28.54 8.1 28.77 8.1C29 8.1 29.19 7.91 29.19 7.68C29.1914 7.62447 29.1814 7.56924 29.1608 7.51767C29.1402 7.46609 29.1093 7.41924 29.07 7.37996C29.0308 7.34069 28.9839 7.3098 28.9323 7.28918C28.8808 7.26856 28.8255 7.25863 28.77 7.26V7.26ZM33.98 11.2C33.75 11.2 33.56 11.39 33.56 11.62C33.56 11.85 33.75 12.04 33.98 12.04C34.21 12.04 34.4 11.85 34.4 11.62C34.4 11.39 34.21 11.2 33.98 11.2ZM33.63 9.71C33.4 9.71 33.21 9.9 33.21 10.13C33.21 10.36 33.4 10.55 33.63 10.55C33.86 10.55 34.05 10.36 34.05 10.13C34.05 9.9 33.86 9.71 33.63 9.71ZM33 8.4C32.77 8.4 32.58 8.59 32.58 8.82C32.58 9.05 32.77 9.23 33 9.23C33.23 9.23 33.42 9.04 33.42 8.81C33.42 8.58 33.23 8.4 33 8.4ZM32.01 7.24C31.78 7.24 31.59 7.43 31.59 7.66C31.59 7.89 31.78 8.08 32.01 8.08C32.24 8.08 32.43 7.89 32.43 7.66C32.43 7.43 32.24 7.24 32.01 7.24ZM30.78 6.35C30.55 6.35 30.36 6.54 30.36 6.77C30.36 7 30.55 7.19 30.78 7.19C31.01 7.19 31.2 7 31.2 6.77C31.2 6.54 31.01 6.35 30.78 6.35ZM29.46 5.84C29.23 5.84 29.04 6.03 29.04 6.26C29.04 6.49 29.23 6.68 29.46 6.68C29.69 6.68 29.88 6.49 29.88 6.26C29.88 6.03 29.69 5.84 29.46 5.84ZM28.12 5.95C27.89 5.95 27.7 6.14 27.7 6.37C27.7 6.6 27.89 6.79 28.12 6.79C28.35 6.79 28.54 6.6 28.54 6.37C28.5375 6.25941 28.4924 6.15405 28.4142 6.07583C28.3359 5.99761 28.2306 5.95254 28.12 5.95V5.95ZM27.13 4.82C26.9 4.82 26.71 5.01 26.71 5.24C26.71 5.47 26.9 5.66 27.13 5.66C27.36 5.66 27.55 5.47 27.55 5.24C27.55 5.01 27.36 4.82 27.13 4.82ZM25.84 3.97C25.61 3.97 25.42 4.16 25.42 4.39C25.42 4.62 25.61 4.81 25.84 4.81C26.07 4.81 26.26 4.62 26.26 4.39C26.26 4.16 26.07 3.97 25.84 3.97V3.97ZM24.5 3.48C24.27 3.48 24.08 3.67 24.08 3.9C24.08 4.13 24.27 4.32 24.5 4.32C24.73 4.32 24.92 4.13 24.92 3.9C24.92 3.67 24.73 3.48 24.5 3.48ZM23.13 3.24C22.9 3.24 22.71 3.43 22.71 3.66C22.71 3.89 22.9 4.08 23.13 4.08C23.36 4.08 23.55 3.89 23.55 3.66C23.55 3.43 23.36 3.24 23.13 3.24ZM10.14 14.22C10.51 14.02 10.64 13.56 10.44 13.2C10.24 12.84 9.78 12.7 9.41 12.9C9.05 13.1 8.91 13.55 9.11 13.92C9.32 14.29 9.78 14.42 10.14 14.22ZM15.53 11.68C15.93 11.58 16.18 11.17 16.07 10.77C16.0183 10.5772 15.8928 10.4125 15.7207 10.3115C15.5485 10.2104 15.3435 10.1812 15.15 10.23C14.75 10.33 14.5 10.74 14.61 11.14C14.72 11.55 15.13 11.79 15.53 11.68V11.68ZM21.8 10.9C22.22 10.9 22.56 10.56 22.56 10.15C22.56 9.74 22.22 9.4 21.8 9.4C21.38 9.4 21.04 9.74 21.04 10.15C21.04 10.56 21.38 10.9 21.8 10.9ZM14.47 9.59C14.7 9.59 14.89 9.4 14.89 9.17C14.89 8.94 14.7 8.75 14.47 8.75C14.24 8.75 14.05 8.94 14.05 9.17C14.05 9.41 14.24 9.59 14.47 9.59ZM14.82 8.1C15.05 8.1 15.24 7.91 15.24 7.68C15.24 7.45 15.05 7.26 14.82 7.26C14.59 7.26 14.4 7.45 14.4 7.68C14.4 7.91 14.59 8.1 14.82 8.1ZM9.62 12.04C9.85 12.04 10.04 11.85 10.04 11.62C10.04 11.39 9.85 11.2 9.62 11.2C9.39 11.2 9.2 11.39 9.2 11.62C9.2 11.85 9.39 12.04 9.62 12.04ZM9.97 10.54C10.2 10.54 10.39 10.35 10.39 10.12C10.39 9.89 10.2 9.7 9.97 9.7C9.74 9.7 9.55 9.89 9.55 10.12C9.55 10.36 9.73 10.54 9.97 10.54ZM10.59 9.23C10.82 9.23 11.01 9.04 11.01 8.81C11.01 8.58 10.83 8.4 10.59 8.4C10.36 8.4 10.17 8.59 10.17 8.82C10.17 9.05 10.36 9.23 10.59 9.23ZM11.59 8.07C11.82 8.07 12.01 7.88 12.01 7.65C12.01 7.42 11.82 7.23 11.59 7.23C11.36 7.23 11.17 7.42 11.17 7.65C11.17 7.88 11.36 8.07 11.59 8.07ZM12.82 7.19C13.05 7.19 13.24 7 13.24 6.77C13.24 6.54 13.05 6.35 12.82 6.35C12.59 6.35 12.4 6.54 12.4 6.77C12.4 7 12.58 7.19 12.82 7.19ZM14.13 6.67C14.36 6.67 14.55 6.48 14.55 6.25C14.55 6.02 14.36 5.83 14.13 5.83C13.9 5.83 13.71 6.02 13.71 6.25C13.71 6.49 13.9 6.67 14.13 6.67ZM15.48 6.79C15.71 6.79 15.9 6.6 15.9 6.37C15.9 6.14 15.71 5.95 15.48 5.95C15.25 5.95 15.06 6.14 15.06 6.37C15.06 6.6 15.25 6.79 15.48 6.79ZM16.47 5.66C16.7 5.66 16.89 5.47 16.89 5.24C16.89 5.01 16.7 4.82 16.47 4.82C16.24 4.82 16.05 5.01 16.05 5.24C16.04 5.47 16.23 5.66 16.47 5.66ZM17.75 4.81C17.98 4.81 18.17 4.62 18.17 4.39C18.17 4.16 17.98 3.97 17.75 3.97C17.52 3.97 17.33 4.16 17.33 4.39C17.33 4.62 17.52 4.81 17.75 4.81ZM19.09 4.31C19.32 4.31 19.51 4.12 19.51 3.89C19.51 3.66 19.32 3.47 19.09 3.47C18.86 3.47 18.67 3.66 18.67 3.89C18.67 4.12 18.86 4.31 19.09 4.31ZM21.8 8.4C22.03 8.4 22.22 8.21 22.22 7.98C22.22 7.75 22.03 7.56 21.8 7.56C21.57 7.56 21.38 7.75 21.38 7.98C21.38 8.21 21.57 8.4 21.8 8.4ZM21.8 6.89C22.03 6.89 22.22 6.7 22.22 6.47C22.22 6.24 22.03 6.05 21.8 6.05C21.57 6.05 21.38 6.24 21.38 6.47C21.38 6.7 21.57 6.89 21.8 6.89ZM21.8 5.37C22.03 5.37 22.22 5.18 22.22 4.95C22.22 4.72 22.03 4.53 21.8 4.53C21.57 4.53 21.38 4.72 21.38 4.95C21.38 5.19 21.57 5.37 21.8 5.37ZM20.47 4.08C20.7 4.08 20.89 3.89 20.89 3.66C20.89 3.43 20.7 3.24 20.47 3.24C20.24 3.24 20.05 3.43 20.05 3.66C20.04 3.89 20.23 4.08 20.47 4.08ZM32.02 14.3C32.37 14.49 32.64 14.41 32.98 14.29C32.42 14.01 32.13 13.76 32.38 13.1C32.49 12.8 32.64 12.58 32.96 12.49C32.76 9.93 32.04 8.71 29.7 7.55L29.53 7.6C29.53 7.63 29.54 7.66 29.54 7.69C29.54 8.04 29.35 8.21 29.09 8.4C29.51 8.49 29.89 8.68 29.89 9.18C29.89 9.6 29.61 9.83 29.24 9.94C29.36 10.17 29.38 10.27 29.36 10.53C29.84 10.76 29.94 11.06 29.82 11.54C29.64 12.23 29.22 12.3 28.56 12.13C28.46 13.2 29.65 13.61 30.23 12.84C30.23 12.78 30.24 12.72 30.25 12.65C30.36 12.24 30.77 12 31.18 12.1C31.59 12.2 31.84 12.62 31.73 13.03C31.7 13.16 31.63 13.27 31.54 13.37C31.51 13.76 31.68 14.11 32.02 14.3V14.3ZM21.14 4.96C21.14 4.91 21.15 4.85 21.15 4.79C18.09 4.57 15.9 6.64 15.6 9.55C15.87 9.66 15.97 9.78 16.1 10.04C16.63 10.01 16.87 10.22 16.99 10.71C17.17 11.4 16.83 11.66 16.18 11.83C16.38 12.28 16.78 12.58 17.3 12.44C17.72 12.33 17.99 11.97 17.99 11.55C17.9158 11.4294 17.8744 11.2915 17.87 11.15C17.87 10.73 18.21 10.39 18.64 10.39C19.06 10.39 19.41 10.73 19.41 11.15C19.41 11.23 19.39 11.31 19.37 11.39C19.49 11.79 19.83 12.07 20.27 12.07C20.81 12.07 21.12 11.68 21.2 11.2C20.52 11.2 20.13 11.02 20.13 10.31C20.13 9.81 20.31 9.54 20.83 9.44C20.95 8.81 21.27 8.77 21.8 8.69C22.33 8.78 22.65 8.82 22.77 9.44C23.29 9.54 23.47 9.81 23.47 10.31C23.47 11.02 23.08 11.19 22.4 11.2C22.48 11.68 22.79 12.07 23.33 12.07C23.76 12.07 24.1 11.79 24.22 11.39C24.2 11.31 24.18 11.23 24.18 11.15C24.18 10.73 24.52 10.39 24.95 10.39C25.37 10.39 25.71 10.73 25.71 11.15C25.71 11.3 25.67 11.43 25.59 11.55C25.6 11.97 25.86 12.34 26.29 12.44C26.81 12.57 27.21 12.27 27.41 11.83C26.75 11.66 26.42 11.39 26.6 10.71C26.73 10.22 26.97 10.01 27.49 10.04C27.62 9.77 27.71 9.65 27.99 9.55C27.69 6.63 25.5 4.56 22.44 4.79C22.45 4.85 22.46 4.9 22.46 4.96C22.46 5.11 22.41 5.23 22.33 5.35V6.09C22.41 6.21 22.46 6.33 22.46 6.48C22.46 6.63 22.41 6.75 22.33 6.87L22.35 7.63C22.42 7.73 22.46 7.86 22.46 8C22.46 8.43 22.14 8.57 21.81 8.71C21.48 8.56 21.16 8.43 21.16 8C21.16 7.85 21.21 7.73 21.29 7.61V6.86C21.2072 6.74665 21.1618 6.61034 21.16 6.47C21.16 6.32 21.21 6.2 21.29 6.08V5.34C21.195 5.23607 21.1416 5.1008 21.14 4.96V4.96ZM11.21 13.1C11.46 13.75 11.17 14.01 10.61 14.29C10.95 14.41 11.22 14.49 11.57 14.3C11.92 14.11 12.08 13.76 12.04 13.38C11.9461 13.2843 11.8792 13.1655 11.8461 13.0356C11.813 12.9058 11.8148 12.7694 11.8513 12.6405C11.8879 12.5115 11.9579 12.3945 12.0542 12.3014C12.1506 12.2082 12.2699 12.1422 12.4 12.11C12.81 12.01 13.23 12.25 13.33 12.66C13.35 12.72 13.35 12.78 13.35 12.85C13.93 13.62 15.12 13.21 15.02 12.14C14.36 12.3 13.94 12.23 13.76 11.55C13.63 11.06 13.74 10.76 14.22 10.54C14.2 10.27 14.22 10.18 14.34 9.95C13.97 9.84 13.69 9.61 13.69 9.2C13.69 8.7 14.07 8.51 14.48 8.42C14.23 8.23 14.03 8.06 14.03 7.71C14.03 7.68 14.03 7.65 13.86 7.59C11.48 8.76 10.81 9.93 10.61 12.52C10.96 12.58 11.1 12.8 11.21 13.1ZM31.45 15.52C28.52 14.15 25.25 13.38 21.8 13.38C18.35 13.38 15.09 14.14 12.17 15.51C11.98 15.6 11.76 15.52 11.67 15.32C11.58 15.12 11.68 14.98 11.76 14.81C11.16 14.99 10.72 14.99 10.2 14.59C9.24 15.24 8.13 13.91 8.86 13.3C8.51 12.87 8.5 12.39 9 12.07C8.91 11.92 8.85 11.8 8.85 11.62C8.85 11.12 9.22 10.93 9.64 10.84C9.4 10.64 9.2 10.48 9.2 10.13C9.2 9.62 9.6 9.41 10.04 9.36C9.92 9.18 9.83 9.05 9.83 8.82C9.83 8.4 10.17 8.06 10.59 8.06C10.72 8.06 10.85 8.1 10.97 8.14C10.89 7.97 10.82 7.85 10.82 7.65C10.82 7.23 11.16 6.89 11.58 6.89C11.78 6.89 11.91 6.96 12.08 7.05C12.07 6.96 12.04 6.85 12.04 6.76C12.04 6.34 12.38 6 12.8 6C13.03 6 13.17 6.09 13.35 6.21C13.44 5.81 13.66 5.49 14.12 5.49C14.46 5.49 14.65 5.67 14.82 5.93C15 5.73 15.17 5.6 15.46 5.6C15.58 5.6 15.69 5.63 15.8 5.66C15.74 5.51 15.69 5.39 15.69 5.23C15.69 4.81 16.03 4.47 16.45 4.47C16.69 4.47 16.83 4.57 17.02 4.69C17 4.6 16.97 4.48 16.97 4.38C16.97 3.96 17.31 3.62 17.73 3.62C17.97 3.62 18.11 3.72 18.3 3.85C18.39 3.45 18.61 3.12 19.07 3.12C19.35 3.12 19.51 3.25 19.7 3.43C19.85 3.12 20.06 2.88 20.44 2.88C20.55 2.88 20.64 2.91 20.74 2.94C21 2.7 21.21 2.58 21.54 2.49V1.69H20.9V1.22H21.54V0.650002H22.05V1.22H22.69V1.69H22.05V2.49C22.38 2.57 22.59 2.69 22.83 2.96C22.93 2.92 23.02 2.9 23.13 2.9C23.52 2.9 23.72 3.13 23.87 3.45C24.06 3.27 24.22 3.14 24.5 3.14C24.96 3.14 25.18 3.47 25.27 3.87C25.45 3.73 25.59 3.64 25.84 3.64C26.26 3.64 26.6 3.98 26.6 4.4C26.6 4.5 26.57 4.62 26.56 4.71C26.75 4.59 26.89 4.49 27.13 4.49C27.55 4.49 27.89 4.83 27.89 5.25C27.89 5.41 27.83 5.53 27.78 5.68C27.89 5.65 28 5.62 28.12 5.62C28.41 5.62 28.58 5.76 28.76 5.95C28.93 5.69 29.12 5.51 29.46 5.51C29.92 5.51 30.15 5.84 30.23 6.23C30.41 6.1 30.54 6.02 30.78 6.02C31.2 6.02 31.54 6.36 31.54 6.78C31.54 6.87 31.52 6.98 31.5 7.07C31.67 6.98 31.8 6.91 32 6.91C32.42 6.91 32.76 7.25 32.76 7.67C32.76 7.86 32.69 7.99 32.61 8.16C32.74 8.1 32.87 8.06 33 8.06C33.42 8.06 33.76 8.4 33.76 8.82C33.76 9.05 33.67 9.18 33.55 9.36C33.99 9.4 34.39 9.62 34.39 10.13C34.39 10.48 34.2 10.65 33.94 10.84C34.36 10.93 34.73 11.12 34.73 11.62C34.73 11.8 34.67 11.92 34.58 12.07C35.08 12.38 35.08 12.86 34.74 13.31C35.18 13.67 34.95 14.24 34.58 14.53C34.2 14.82 33.82 14.88 33.4 14.6C32.88 15 32.44 15 31.84 14.82L31.93 15C32.08 15.3 31.78 15.64 31.45 15.52V15.52ZM13.16 16.28L12.54 16.05L12.49 15.95C12.44 15.97 12.4 15.98 12.36 15.99C12.19 16 12.2 15.82 12.29 15.78C15.18 14.43 18.39 13.68 21.79 13.68C25.2 13.68 28.41 14.43 31.29 15.78C31.37 15.82 31.39 16.01 31.22 15.99C31.19 15.99 31.14 15.98 31.09 15.95L31.04 16.05L30.42 16.28L30.6 16.99L30.54 17.11C30.87 17.26 30.64 17.49 30.51 17.43C27.86 16.19 24.91 15.5 21.78 15.5C18.65 15.5 15.7 16.19 13.05 17.43C12.98 17.46 12.9 17.43 12.86 17.35C12.82 17.27 12.86 17.21 12.91 17.17C12.94 17.15 12.98 17.13 13.01 17.11L12.95 16.99L13.16 16.28V16.28ZM16.61 15.76L17.94 14.84L16.33 14.67L15 15.59L16.61 15.76ZM29.69 16.61C29.99 16.61 30.23 16.37 30.23 16.07C30.23 15.77 29.99 15.53 29.69 15.53C29.39 15.53 29.15 15.77 29.15 16.07C29.15 16.38 29.39 16.61 29.69 16.61ZM19.1 15.22C19.4 15.22 19.64 14.98 19.64 14.68C19.64 14.38 19.4 14.14 19.1 14.14C18.8 14.14 18.56 14.38 18.56 14.68C18.56 14.98 18.8 15.22 19.1 15.22V15.22ZM13.9 16.61C14.2 16.61 14.44 16.37 14.44 16.07C14.44 15.77 14.2 15.53 13.9 15.53C13.6 15.53 13.36 15.77 13.36 16.07C13.36 16.38 13.6 16.61 13.9 16.61ZM24.49 15.22C24.79 15.22 25.03 14.98 25.03 14.68C25.03 14.38 24.79 14.14 24.49 14.14C24.19 14.14 23.95 14.38 23.95 14.68C23.95 14.98 24.19 15.22 24.49 15.22ZM26.98 15.76L28.59 15.59L27.26 14.67L25.65 14.84L26.98 15.76ZM23.49 14.55L21.8 13.92L20.11 14.55L21.8 15.18L23.49 14.55ZM4.29 35.89C4.29 45.45 12.16 53.27 21.8 53.27C31.43 53.27 39.31 45.45 39.31 35.89C39.31 26.3 31.44 18.51 21.8 18.51C12.17 18.5 4.29 26.3 4.29 35.89V35.89ZM41.21 35.89C41.21 46.5 32.5 55.16 21.8 55.16C11.1 55.16 2.39 46.49 2.39 35.89C2.39 25.26 11.1 16.59 21.8 16.59C32.5 16.59 41.21 25.26 41.21 35.89ZM19.25 27.7L21.78 30.27L24.15 27.78C23.32 27.56 22.53 27.4 21.66 27.37C20.85 27.33 20.03 27.52 19.25 27.7V27.7ZM25.92 25.89L29.64 22.07C34.45 24.81 37.69 29.95 37.69 35.82C37.69 39.65 36.33 43.15 34.03 45.89L32.29 44.16C34.24 41.79 35.52 39.43 35.52 35.67C35.52 31.64 33.4 27.15 30.01 24.82L27.78 27.09C28.93 27.94 29.83 28.8 30.6 30.01L28.89 31.47C28.21 30.29 27.34 29.46 26.22 28.7L21.77 33.36L17.16 28.63C14.77 30.29 13.36 32.66 13.3 35.61C13.22 39.52 15.77 42.25 19.35 43.43V35.56H24.81V37.18H21.46V39.28H24.76V41.13H21.46V43.78C23.91 43.91 26.51 42.5 28.1 40.75L29.74 42.39C27.65 44.8 24.63 46.02 21.47 46.04V48.46H19.36V45.78C14.53 44.59 11.04 40.39 11.11 35.37C11.15 31.93 13 29.11 15.68 27.1L13.42 24.77C9.91 27.62 8.03 31.1 7.87 35.62C7.75 39.62 9.83 42.83 11.14 44.18L9.6 45.77C7.24 43.04 5.86 39.68 5.86 35.83C5.86 30 9.1 24.86 13.87 22.13L17.64 26.03C18.97 25.52 20.36 25.25 21.8 25.25C23.23 25.27 24.46 25.53 25.79 26.03L25.92 25.89V25.89Z" fill="#FCBF00"/>
<path d="M41.79 35.89C41.79 46.81 32.82 55.74 21.8 55.74C10.78 55.74 1.81 46.81 1.81 35.89C1.81 24.95 10.78 16.02 21.8 16.02C32.82 16.02 41.79 24.95 41.79 35.89V35.89ZM41.21 35.89C41.21 25.26 32.5 16.59 21.8 16.59C11.1 16.59 2.39 25.26 2.39 35.89C2.39 46.5 11.1 55.16 21.8 55.16C32.5 55.16 41.21 46.49 41.21 35.89ZM4.87 35.89C4.87 45.14 12.49 52.7 21.8 52.7C31.11 52.7 38.73 45.14 38.73 35.89C38.73 26.62 31.11 19.08 21.8 19.08C12.49 19.08 4.87 26.62 4.87 35.89ZM4.29 35.89C4.29 26.3 12.16 18.51 21.8 18.51C31.43 18.51 39.31 26.31 39.31 35.89C39.31 45.45 31.44 53.27 21.8 53.27C12.17 53.27 4.29 45.45 4.29 35.89V35.89ZM23.84 32.05L33.31 41.75C34.39 39.98 34.93 38.17 34.93 35.68C34.93 31.32 32.47 27.35 30.08 25.59L28.65 27.04C29.79 27.94 30.6 28.91 31.34 30.14L28.71 32.4C28.08 31.18 27.42 30.29 26.29 29.48L23.84 32.05V32.05ZM35.84 44.34C34.13 47.22 31.54 49.49 28.45 50.85L26.92 49.29L24.06 46.38C23.41 46.52 22.73 46.61 22.05 46.63V49.06H18.78V46.26C13.86 44.94 10.47 40.37 10.53 35.4C10.54 34.57 10.65 33.77 10.86 32.99L9.24 31.36C8.76 32.7 8.49 34.15 8.43 35.68C8.34 38.76 9.69 42.09 11.94 44.21L9.58 46.6C6.8 43.5 5.28 40.01 5.28 35.81C5.28 29.68 8.66 24.34 13.98 21.38L17.79 25.33C19.05 24.88 20.48 24.65 21.8 24.65C23.22 24.67 24.51 24.92 25.65 25.34L29.53 21.34C34.89 24.29 38.27 29.64 38.27 35.81C38.27 38.96 37.43 41.8 35.84 44.34V44.34ZM18.77 41.04L13.88 36.09C14 38.87 15.7 41.48 18.77 42.65V41.04ZM25.92 25.89L25.79 26.02C24.46 25.52 23.23 25.26 21.8 25.24C20.37 25.24 18.98 25.51 17.64 26.02L13.87 22.12C9.1 24.86 5.86 30 5.86 35.83C5.86 39.68 7.24 43.04 9.6 45.77L11.12 44.23C9.81 42.88 7.73 39.67 7.85 35.67C8.01 31.14 9.89 27.67 13.4 24.82L15.66 27.15C12.98 29.16 11.14 31.97 11.09 35.42C11.03 40.44 14.51 44.63 19.34 45.83V48.51H21.45V46.09C24.62 46.07 27.63 44.85 29.72 42.44L28.08 40.8C26.49 42.55 23.89 43.95 21.44 43.83V41.18H24.74V39.33H21.44V37.23H24.79V35.61H19.33V43.48C15.75 42.3 13.2 39.57 13.28 35.66C13.34 32.71 14.75 30.34 17.14 28.68L21.75 33.41L26.2 28.75C27.32 29.51 28.19 30.34 28.87 31.52L30.58 30.06C29.81 28.85 28.91 27.99 27.76 27.14L29.99 24.87C33.38 27.19 35.5 31.69 35.5 35.72C35.5 39.48 34.23 41.84 32.27 44.21L34.01 45.94C36.31 43.2 37.67 39.7 37.67 35.87C37.67 30 34.43 24.86 29.62 22.12L25.92 25.89V25.89ZM19.25 27.7C20.04 27.52 20.85 27.33 21.66 27.37C22.53 27.4 23.32 27.55 24.15 27.78L21.78 30.27L19.25 27.7V27.7ZM20.4 28.04L21.77 29.43L23.05 28.09C22.59 28 22.12 27.95 21.64 27.94C21.33 27.93 20.87 27.97 20.4 28.04V28.04ZM30.58 16.36L30.7 16.82L30.75 16.99L30.84 16.94L31.28 16.7L31.17 16.24L31.15 16.14L30.58 16.36V16.36ZM31.45 15.52C31.79 15.64 32.08 15.3 31.94 14.99L31.85 14.81C32.45 14.99 32.89 14.99 33.41 14.59C33.83 14.87 34.21 14.81 34.59 14.52C34.96 14.23 35.19 13.67 34.75 13.3C35.09 12.86 35.1 12.38 34.59 12.06C34.68 11.91 34.74 11.79 34.74 11.61C34.74 11.11 34.36 10.92 33.95 10.83C34.2 10.64 34.4 10.47 34.4 10.12C34.4 9.61 34 9.4 33.56 9.35C33.68 9.17 33.77 9.04 33.77 8.81C33.77 8.60844 33.6899 8.41513 33.5474 8.2726C33.4049 8.13007 33.2116 8.05 33.01 8.05C32.88 8.05 32.75 8.09 32.63 8.13C32.71 7.96 32.78 7.84 32.78 7.64C32.78 7.43844 32.6999 7.24513 32.5574 7.1026C32.4149 6.96007 32.2216 6.88 32.02 6.88C31.81 6.88 31.69 6.95 31.52 7.04C31.53 6.95 31.56 6.84 31.56 6.75C31.56 6.54844 31.4799 6.35513 31.3374 6.2126C31.1949 6.07007 31.0016 5.99 30.8 5.99C30.57 5.99 30.43 6.08 30.25 6.2C30.16 5.81 29.94 5.48 29.48 5.48C29.14 5.48 28.95 5.66 28.78 5.92C28.6 5.72 28.43 5.59 28.14 5.59C28.02 5.59 27.91 5.62 27.8 5.65C27.86 5.5 27.91 5.38 27.91 5.22C27.91 5.01844 27.8299 4.82513 27.6874 4.6826C27.5449 4.54007 27.3516 4.46 27.15 4.46C26.91 4.46 26.77 4.56 26.58 4.68C26.6 4.59 26.62 4.47 26.62 4.37C26.62 4.16844 26.5399 3.97513 26.3974 3.8326C26.2549 3.69007 26.0616 3.61 25.86 3.61C25.62 3.61 25.48 3.71 25.29 3.84C25.2 3.44 24.98 3.11 24.52 3.11C24.24 3.11 24.08 3.24 23.89 3.42C23.74 3.11 23.53 2.87 23.15 2.87C23.04 2.87 22.95 2.9 22.85 2.93C22.61 2.66 22.41 2.55 22.07 2.46V1.66H22.71V1.22H22.07V0.650001H21.56V1.22H20.9V1.69H21.54V2.49C21.21 2.58 21 2.7 20.77 2.96C20.6751 2.92001 20.573 2.8996 20.47 2.9C20.08 2.9 19.88 3.13 19.73 3.45C19.54 3.27 19.38 3.14 19.1 3.14C18.63 3.14 18.42 3.47 18.33 3.87C18.14 3.73 18 3.63 17.75 3.63C17.5484 3.63 17.3551 3.71007 17.2126 3.8526C17.0701 3.99513 16.99 4.18844 16.99 4.39C16.99 4.49 17.02 4.61 17.04 4.7C16.85 4.58 16.71 4.48 16.47 4.48C16.2684 4.48 16.0751 4.56007 15.9326 4.7026C15.7901 4.84513 15.71 5.03844 15.71 5.24C15.71 5.4 15.77 5.52 15.82 5.67C15.71 5.64 15.6 5.61 15.48 5.61C15.19 5.61 15.02 5.75 14.84 5.94C14.67 5.68 14.48 5.5 14.14 5.5C13.68 5.5 13.46 5.83 13.37 6.22C13.19 6.1 13.05 6.01 12.82 6.01C12.6184 6.01 12.4251 6.09007 12.2826 6.2326C12.1401 6.37513 12.06 6.56844 12.06 6.77C12.06 6.86 12.08 6.97 12.1 7.06C11.93 6.97 11.8 6.9 11.6 6.9C11.3984 6.9 11.2051 6.98007 11.0626 7.1226C10.9201 7.26513 10.84 7.45844 10.84 7.66C10.84 7.85 10.91 7.98 10.99 8.15C10.86 8.12 10.74 8.07 10.61 8.07C10.4084 8.07 10.2151 8.15007 10.0726 8.2926C9.93007 8.43513 9.85 8.62844 9.85 8.83C9.85 9.06 9.94 9.19 10.06 9.37C9.6 9.4 9.2 9.62 9.2 10.13C9.2 10.48 9.39 10.65 9.64 10.84C9.22 10.93 8.85 11.12 8.85 11.62C8.85 11.8 8.91 11.92 9 12.07C8.5 12.38 8.5 12.86 8.84 13.31C8.11 13.91 9.22 15.25 10.18 14.6C10.7 15 11.14 15 11.74 14.82C11.66 14.99 11.56 15.14 11.65 15.33C11.74 15.53 11.96 15.61 12.15 15.52C15.08 14.15 18.33 13.39 21.78 13.39C25.23 13.39 28.52 14.15 31.45 15.52V15.52ZM13.02 16.36L12.61 16.21L12.45 16.16L12.43 16.26L12.31 16.71L12.75 16.95L12.85 17.01L12.89 16.83L13.02 16.36ZM12.76 17.08L12.18 16.76L12.32 16.18C12.1 16.15 11.99 15.89 12.09 15.72C11.9689 15.7382 11.8451 15.7169 11.7371 15.6593C11.629 15.6016 11.5424 15.5107 11.49 15.4C11.44 15.3 11.43 15.19 11.44 15.08C11 15.17 10.54 15.07 10.17 14.81C9.14 15.42 7.93 13.96 8.59 13.28C8.3 12.84 8.37 12.3 8.75 12.01C8.69545 11.8944 8.66514 11.7688 8.66093 11.641C8.65673 11.5132 8.67872 11.3859 8.72556 11.267C8.7724 11.148 8.84309 11.0399 8.93328 10.9492C9.02347 10.8586 9.13126 10.7874 9.25 10.74C9.09415 10.5713 9.00834 10.3497 9.01 10.12C9.01 9.68 9.32 9.31 9.73 9.21C9.67665 9.08693 9.64941 8.95413 9.65 8.82C9.65 8.3 10.07 7.89 10.59 7.89L10.68 7.9C10.6448 7.76196 10.6417 7.61766 10.6711 7.47825C10.7004 7.33884 10.7614 7.20804 10.8494 7.09594C10.9373 6.98385 11.0498 6.89345 11.1782 6.83174C11.3067 6.77002 11.4475 6.73864 11.59 6.74C11.69 6.74 11.79 6.76 11.87 6.78C11.87 6.27 12.29 5.85 12.81 5.85C12.97 5.85 13.11 5.89 13.24 5.96C13.2969 5.8044 13.3938 5.66653 13.5209 5.56028C13.648 5.45403 13.8009 5.38314 13.9641 5.35475C14.1273 5.32637 14.2951 5.34148 14.4507 5.39858C14.6062 5.45568 14.7439 5.55274 14.85 5.68C15.01 5.54 15.23 5.45 15.47 5.45H15.53C15.4999 5.31317 15.501 5.17129 15.5334 5.03497C15.5658 4.89865 15.6286 4.77141 15.717 4.66276C15.8055 4.5541 15.9174 4.46684 16.0443 4.40748C16.1712 4.34813 16.3099 4.31823 16.45 4.32C16.57 4.32 16.69 4.34 16.8 4.39C16.8037 4.22777 16.8492 4.06924 16.9323 3.92982C17.0153 3.7904 17.133 3.67482 17.2739 3.59431C17.4148 3.5138 17.5741 3.47109 17.7364 3.47034C17.8987 3.46958 18.0584 3.51081 18.2 3.59C18.33 3.23 18.68 2.98 19.08 2.98C19.3 2.98 19.5 3.05 19.66 3.18C19.83 2.92 20.12 2.75 20.46 2.75C20.55 2.75 20.63 2.76 20.71 2.78C20.86 2.62 21.05 2.49 21.26 2.41L21.36 2.38V1.87H20.72V1.04H21.36V0.470001H22.23V1.04H22.87V1.87H22.23V2.36L22.33 2.39C22.54 2.47 22.73 2.6 22.88 2.76C22.96 2.74 23.04 2.73 23.13 2.73C23.47 2.73 23.76 2.9 23.92 3.16C24.08 3.04 24.28 2.96 24.5 2.96C24.91 2.96 25.25 3.21 25.38 3.57C25.52 3.5 25.67 3.45 25.84 3.45C26.36 3.45 26.77 3.86 26.78 4.37C26.9216 4.31239 27.0752 4.29032 27.2274 4.30571C27.3795 4.32111 27.5256 4.3735 27.6528 4.45832C27.78 4.54314 27.8846 4.65781 27.9573 4.79232C28.03 4.92683 28.0687 5.0771 28.07 5.23C28.07 5.3 28.06 5.36 28.05 5.43H28.12C28.36 5.43 28.57 5.52 28.74 5.66C28.91 5.45 29.17 5.32 29.47 5.32C29.88 5.32 30.22 5.58 30.35 5.94C30.4917 5.86389 30.6508 5.82584 30.8116 5.82958C30.9725 5.83332 31.1296 5.87872 31.2676 5.96135C31.4057 6.04397 31.5199 6.16099 31.5992 6.30098C31.6785 6.44096 31.7201 6.59912 31.72 6.76C31.81 6.73 31.91 6.72 32.01 6.72C32.53 6.72 32.95 7.14 32.95 7.65C32.95 7.73 32.94 7.81 32.92 7.88H33C33.52 7.88 33.94 8.3 33.94 8.81C33.94 8.95 33.91 9.09 33.85 9.21C34.26 9.31 34.57 9.68 34.57 10.12C34.57 10.36 34.48 10.58 34.33 10.74C34.449 10.787 34.5571 10.8581 34.6475 10.9486C34.738 11.0392 34.8088 11.1474 34.8557 11.2664C34.9026 11.3855 34.9245 11.513 34.9201 11.6409C34.9157 11.7688 34.885 11.8944 34.83 12.01C35.21 12.3 35.28 12.84 34.99 13.28C35.41 13.71 35.05 14.39 34.7 14.66C34.36 14.93 33.88 15.09 33.42 14.81C33.06 15.07 32.6 15.17 32.15 15.08C32.2 15.45 31.87 15.78 31.5 15.72C31.6 15.89 31.49 16.15 31.28 16.18L31.42 16.76L30.84 17.08C30.92 17.17 30.94 17.31 30.88 17.42C30.8637 17.46 30.8395 17.4963 30.8087 17.5267C30.778 17.5571 30.7415 17.581 30.7013 17.5968C30.6611 17.6127 30.6181 17.6203 30.575 17.6191C30.5318 17.618 30.4893 17.608 30.45 17.59C27.7422 16.325 24.7887 15.6729 21.8 15.68C18.7 15.68 15.78 16.36 13.15 17.59C12.98 17.67 12.8 17.58 12.72 17.42C12.6919 17.3658 12.6807 17.3045 12.6878 17.2439C12.6949 17.1832 12.7201 17.1262 12.76 17.08V17.08ZM13.16 16.28L12.98 16.99L13.04 17.11C13.01 17.13 12.97 17.14 12.94 17.17C12.89 17.22 12.85 17.27 12.89 17.35C12.93 17.43 13.01 17.46 13.08 17.43C15.73 16.19 18.68 15.5 21.81 15.5C24.94 15.5 27.89 16.19 30.54 17.43C30.68 17.49 30.9 17.26 30.57 17.11L30.63 16.99L30.45 16.28L31.07 16.05L31.12 15.95C31.17 15.97 31.21 15.98 31.25 15.99C31.42 16.01 31.41 15.82 31.32 15.78C28.43 14.43 25.22 13.68 21.82 13.68C18.42 13.68 15.2 14.43 12.32 15.78C12.24 15.82 12.23 16.01 12.39 15.99C12.42 15.99 12.47 15.98 12.52 15.95L12.57 16.05L13.16 16.28V16.28ZM27.44 8.01C26.7 6.16 24.96 4.82 22.63 4.95C22.63 5.11 22.58 5.27 22.5 5.39V6.02C22.5844 6.15122 22.6294 6.30396 22.6294 6.46C22.6294 6.61604 22.5844 6.76879 22.5 6.9V7.3C24.1 7.09 25.97 7.25 27.44 8.01V8.01ZM22.5 7.54C22.6106 7.70989 22.6534 7.91507 22.6201 8.11502C22.5868 8.31497 22.4797 8.49516 22.32 8.62C22.6 8.72 22.82 8.92 22.91 9.3C23.48 9.44 23.63 9.86 23.63 10.32C23.63 10.87 23.41 11.34 22.6 11.38C22.56 11.4923 22.5474 11.6126 22.5632 11.7307C22.579 11.8489 22.6227 11.9616 22.6908 12.0595C22.7588 12.1574 22.8492 12.2377 22.9545 12.2936C23.0597 12.3496 23.1768 12.3797 23.296 12.3814C23.4152 12.383 23.5331 12.3563 23.6399 12.3033C23.7467 12.2503 23.8394 12.1726 23.9101 12.0767C23.9809 11.9807 24.0278 11.8693 24.0469 11.7516C24.066 11.6339 24.0568 11.5134 24.02 11.4C24.01 11.32 24 11.24 24 11.16C24 10.64 24.42 10.22 24.95 10.22C25.47 10.22 25.89 10.64 25.89 11.16C25.89 11.32 25.85 11.47 25.78 11.61C25.8 11.92 26.02 12.2 26.34 12.29C26.66 12.37 26.99 12.23 27.16 11.96C26.39 11.72 26.29 11.21 26.43 10.68C26.55 10.23 26.8 9.86 27.39 9.87C27.5 9.66 27.64 9.53 27.81 9.45C27.74 9 27.64 8.58 27.5 8.18C26 7.35 24.03 7.2 22.5 7.43V7.54V7.54ZM21.14 4.96C21.14 5.11 21.19 5.23 21.27 5.35V6.09C21.19 6.21 21.14 6.33 21.14 6.48C21.14 6.63 21.19 6.75 21.27 6.87V7.61C21.19 7.73 21.14 7.85 21.14 8C21.14 8.43 21.46 8.57 21.79 8.71C22.12 8.56 22.44 8.43 22.44 8C22.4404 7.86855 22.4022 7.73987 22.33 7.63L22.31 6.87C22.39 6.75 22.44 6.63 22.44 6.48C22.44 6.33 22.39 6.21 22.31 6.09V5.34C22.39 5.22 22.44 5.1 22.44 4.95C22.44 4.89 22.43 4.84 22.42 4.78C25.48 4.56 27.67 6.62 27.97 9.54C27.7 9.65 27.6 9.77 27.47 10.03C26.94 10 26.7 10.21 26.58 10.7C26.4 11.39 26.73 11.65 27.39 11.82C27.19 12.27 26.79 12.57 26.27 12.43C26.0715 12.3797 25.8951 12.2651 25.7685 12.1041C25.6419 11.9431 25.5721 11.7448 25.57 11.54C25.64 11.41 25.69 11.29 25.69 11.14C25.69 11.0402 25.6703 10.9414 25.6321 10.8492C25.594 10.757 25.538 10.6732 25.4674 10.6026C25.3968 10.532 25.313 10.476 25.2208 10.4379C25.1286 10.3997 25.0298 10.38 24.93 10.38C24.51 10.38 24.16 10.72 24.16 11.14C24.16 11.22 24.18 11.3 24.2 11.38C24.08 11.78 23.74 12.06 23.31 12.06C22.77 12.06 22.46 11.67 22.38 11.19C23.06 11.19 23.45 11.01 23.45 10.3C23.45 9.8 23.27 9.53 22.75 9.43C22.63 8.8 22.31 8.76 21.78 8.68C21.25 8.77 20.93 8.81 20.81 9.43C20.29 9.53 20.11 9.8 20.11 10.3C20.11 11.01 20.5 11.18 21.18 11.19C21.1 11.67 20.79 12.06 20.25 12.06C19.82 12.06 19.48 11.78 19.35 11.38C19.37 11.3 19.39 11.22 19.39 11.14C19.39 10.72 19.05 10.38 18.62 10.38C18.2 10.38 17.85 10.72 17.85 11.14C17.85 11.29 17.89 11.42 17.97 11.54C17.96 11.96 17.7 12.33 17.28 12.43C16.76 12.56 16.36 12.26 16.16 11.82C16.82 11.65 17.15 11.38 16.97 10.7C16.84 10.21 16.6 10 16.08 10.03C15.96 9.76 15.86 9.64 15.58 9.54C15.88 6.62 18.07 4.55 21.13 4.78C21.15 4.84 21.14 4.9 21.14 4.96V4.96ZM16.09 8.18C15.95 8.58 15.85 9 15.8 9.44C15.97 9.52 16.11 9.66 16.22 9.86C16.81 9.85 17.06 10.22 17.18 10.67C17.32 11.2 17.22 11.71 16.45 11.95C16.444 12.0665 16.4655 12.1828 16.5127 12.2894C16.5599 12.3961 16.6315 12.4902 16.7217 12.5642C16.8119 12.6381 16.9182 12.6898 17.032 12.7152C17.1459 12.7406 17.2641 12.7388 17.3772 12.7102C17.4902 12.6815 17.595 12.6267 17.683 12.5501C17.771 12.4736 17.8398 12.3774 17.8839 12.2694C17.9279 12.1614 17.946 12.0446 17.9366 11.9283C17.9273 11.812 17.8908 11.6996 17.83 11.6C17.7562 11.4616 17.7184 11.3068 17.72 11.15C17.72 10.63 18.14 10.21 18.66 10.21C18.8044 10.2097 18.9469 10.2424 19.0767 10.3056C19.2065 10.3688 19.3202 10.4609 19.4089 10.5747C19.4977 10.6886 19.5593 10.8212 19.5889 10.9625C19.6186 11.1038 19.6155 11.2501 19.58 11.39C19.6325 11.5376 19.7299 11.665 19.8585 11.7544C19.9872 11.8438 20.1405 11.8907 20.2972 11.8885C20.4538 11.8863 20.6058 11.8351 20.7318 11.7421C20.8579 11.6491 20.9517 11.519 21 11.37C20.19 11.33 19.97 10.86 19.97 10.31C19.97 9.85 20.13 9.43 20.69 9.29C20.78 8.92 21 8.71 21.28 8.61C21.1203 8.48516 21.0132 8.30497 20.9799 8.10502C20.9466 7.90507 20.9894 7.69989 21.1 7.53V7.43C19.57 7.21 17.6 7.35 16.09 8.18V8.18ZM20.96 4.96C18.63 4.83 16.9 6.16 16.16 8.02C17.62 7.27 19.5 7.09 21.09 7.32V6.92C21.0055 6.78879 20.9606 6.63604 20.9606 6.48C20.9606 6.32396 21.0055 6.17122 21.09 6.04V5.4C21.0067 5.26824 20.9617 5.11589 20.96 4.96V4.96ZM30.43 13.46L30.48 13.42C30.58 13.5 30.67 13.55 30.8 13.59L30.96 13.62C31.02 13.95 31.14 14.22 31.37 14.46L31.27 14.6C30.72 14.36 30.15 14.13 29.57 13.93L29.59 13.76C29.9 13.73 30.19 13.63 30.43 13.46ZM30.48 13.64C30.32 13.75 30.14 13.83 29.96 13.88C30.32 14.01 30.68 14.15 31.04 14.3C30.94 14.14 30.86 13.96 30.82 13.77L30.76 13.76C30.66 13.73 30.57 13.69 30.48 13.64V13.64ZM21.71 11.37H21.89C21.96 11.86 22.27 12.26 22.7 12.46L22.66 12.63C22.38 12.62 22.09 12.61 21.8 12.61C21.51 12.61 21.23 12.62 20.94 12.63L20.9 12.46C21.33 12.26 21.64 11.85 21.71 11.37ZM21.8 11.73C21.69 12.01 21.51 12.26 21.27 12.44C21.44 12.44 21.62 12.43 21.8 12.43C21.98 12.43 22.15 12.43 22.33 12.44C22.09 12.26 21.91 12.02 21.8 11.73ZM12.32 14.6L12.22 14.46C12.45 14.21 12.57 13.95 12.63 13.62C12.85 13.59 12.93 13.57 13.12 13.43C13.39 13.63 13.66 13.74 14 13.76L14.02 13.93C13.44 14.13 12.87 14.35 12.32 14.6V14.6ZM12.56 14.3C12.91 14.15 13.27 14.01 13.64 13.88C13.45 13.83 13.27 13.75 13.12 13.64C13.04 13.69 12.94 13.74 12.84 13.76L12.78 13.77C12.73 13.96 12.66 14.14 12.56 14.3V14.3ZM16.79 12.97V13.14C16.24 13.26 15.69 13.4 15.15 13.55L15.07 13.4C15.43 13.1 15.62 12.63 15.57 12.15L15.74 12.11C15.92 12.56 16.32 12.88 16.79 12.97ZM16.42 13.05C16.15 12.93 15.91 12.74 15.74 12.5C15.71 12.8 15.59 13.08 15.41 13.31C15.75 13.21 16.09 13.12 16.42 13.05ZM17.95 12.93L17.89 12.77C18.22 12.56 18.42 12.28 18.55 11.92H18.66C18.76 11.92 18.85 11.9 18.94 11.87C19.16 12.19 19.43 12.41 19.8 12.53L19.78 12.7C19.16 12.75 18.55 12.83 17.95 12.93V12.93ZM18.67 12.09C18.58 12.32 18.44 12.52 18.26 12.69C18.64 12.63 19.03 12.58 19.42 12.55C19.2 12.43 19.01 12.26 18.87 12.07C18.8 12.08 18.74 12.09 18.67 12.09V12.09ZM23.82 12.7L23.8 12.53C24.17 12.41 24.44 12.19 24.66 11.87C24.76 11.9 24.84 11.92 24.94 11.92H25.05C25.18 12.28 25.38 12.56 25.71 12.77L25.65 12.93C25.05 12.83 24.43 12.75 23.82 12.7ZM24.92 12.09C24.86 12.09 24.79 12.08 24.73 12.07C24.58 12.27 24.39 12.43 24.18 12.55C24.57 12.59 24.95 12.64 25.34 12.69C25.17 12.53 25.04 12.34 24.94 12.13L24.92 12.09V12.09ZM28.53 13.41L28.45 13.56C27.91 13.4 27.37 13.26 26.81 13.15V12.98C27.27 12.88 27.67 12.57 27.86 12.12L28.03 12.16C27.98 12.64 28.17 13.11 28.53 13.41V13.41ZM28.18 13.3C28 13.07 27.89 12.79 27.85 12.49C27.68 12.74 27.44 12.93 27.17 13.04C27.51 13.12 27.85 13.21 28.18 13.3V13.3ZM28.44 10.23C28.2465 10.1812 28.0415 10.2104 27.8693 10.3115C27.6972 10.4125 27.5717 10.5772 27.52 10.77C27.42 11.17 27.66 11.58 28.06 11.68C28.47 11.78 28.88 11.54 28.98 11.14C29.0286 10.9477 28.999 10.7441 28.8978 10.5735C28.7966 10.403 28.632 10.2795 28.44 10.23V10.23ZM28.47 10.11C28.94 10.23 29.22 10.7 29.1 11.17C28.98 11.64 28.5 11.92 28.03 11.8C27.9187 11.7724 27.814 11.7229 27.7219 11.6545C27.6299 11.5861 27.5523 11.5001 27.4937 11.4015C27.4351 11.3029 27.3966 11.1937 27.3806 11.0802C27.3645 10.9666 27.3711 10.851 27.4 10.74C27.52 10.28 28 9.99 28.47 10.11ZM29.12 8.76C28.89 8.76 28.7 8.95 28.7 9.18C28.7 9.41 28.89 9.6 29.12 9.6C29.35 9.6 29.54 9.41 29.54 9.18C29.54 8.95 29.36 8.76 29.12 8.76ZM29.12 8.64C29.42 8.64 29.66 8.88 29.66 9.18C29.66 9.48 29.42 9.72 29.12 9.72C28.82 9.72 28.58 9.48 28.58 9.18C28.58 8.88 28.83 8.64 29.12 8.64ZM28.77 7.26C28.54 7.26 28.35 7.45 28.35 7.68C28.35 7.91 28.54 8.1 28.77 8.1C29 8.1 29.19 7.91 29.19 7.68C29.1914 7.62447 29.1814 7.56924 29.1608 7.51767C29.1402 7.46609 29.1093 7.41924 29.07 7.37996C29.0308 7.34069 28.9839 7.3098 28.9323 7.28918C28.8808 7.26856 28.8255 7.25863 28.77 7.26ZM28.77 7.14C29.07 7.14 29.31 7.38 29.31 7.68C29.31 7.98 29.07 8.22 28.77 8.22C28.47 8.22 28.23 7.98 28.23 7.68C28.23 7.38 28.48 7.14 28.77 7.14ZM33.98 11.2C33.75 11.2 33.56 11.39 33.56 11.62C33.56 11.85 33.75 12.04 33.98 12.04C34.21 12.04 34.4 11.85 34.4 11.62C34.4 11.39 34.21 11.2 33.98 11.2ZM33.98 11.08C34.28 11.08 34.52 11.32 34.52 11.62C34.52 11.92 34.28 12.16 33.98 12.16C33.68 12.16 33.44 11.92 33.44 11.62C33.44 11.32 33.68 11.08 33.98 11.08V11.08ZM33.63 9.71C33.4 9.71 33.21 9.9 33.21 10.13C33.21 10.36 33.4 10.55 33.63 10.55C33.86 10.55 34.05 10.36 34.05 10.13C34.05 9.9 33.86 9.71 33.63 9.71ZM33.63 9.59C33.93 9.59 34.17 9.83 34.17 10.13C34.17 10.43 33.93 10.67 33.63 10.67C33.33 10.67 33.09 10.43 33.09 10.13C33.09 9.83 33.33 9.59 33.63 9.59V9.59ZM33 8.4C32.77 8.4 32.58 8.59 32.58 8.82C32.58 9.05 32.77 9.23 33 9.23C33.23 9.23 33.42 9.04 33.42 8.81C33.42 8.58 33.23 8.4 33 8.4ZM33 8.28C33.3 8.28 33.54 8.52 33.54 8.82C33.54 9.12 33.3 9.36 33 9.36C32.7 9.36 32.46 9.12 32.46 8.82C32.46 8.52 32.7 8.28 33 8.28ZM32.01 7.24C31.78 7.24 31.59 7.43 31.59 7.66C31.59 7.89 31.78 8.08 32.01 8.08C32.24 8.08 32.43 7.89 32.43 7.66C32.43 7.43 32.24 7.24 32.01 7.24V7.24ZM32.01 7.12C32.31 7.12 32.55 7.36 32.55 7.66C32.55 7.96 32.31 8.2 32.01 8.2C31.71 8.2 31.47 7.96 31.47 7.66C31.46 7.36 31.71 7.12 32.01 7.12ZM30.78 6.35C30.55 6.35 30.36 6.54 30.36 6.77C30.36 7 30.55 7.19 30.78 7.19C31.01 7.19 31.2 7 31.2 6.77C31.2 6.54 31.01 6.35 30.78 6.35ZM30.78 6.23C31.08 6.23 31.32 6.47 31.32 6.77C31.32 7.07 31.08 7.31 30.78 7.31C30.48 7.31 30.24 7.07 30.24 6.77C30.24 6.47 30.48 6.23 30.78 6.23ZM29.46 5.84C29.23 5.84 29.04 6.03 29.04 6.26C29.04 6.49 29.23 6.68 29.46 6.68C29.69 6.68 29.88 6.49 29.88 6.26C29.88 6.03 29.69 5.84 29.46 5.84ZM29.46 5.72C29.76 5.72 30 5.96 30 6.26C30 6.56 29.76 6.8 29.46 6.8C29.16 6.8 28.92 6.56 28.92 6.26C28.92 5.96 29.16 5.72 29.46 5.72ZM28.12 5.95C27.89 5.95 27.7 6.14 27.7 6.37C27.7 6.6 27.89 6.79 28.12 6.79C28.35 6.79 28.54 6.6 28.54 6.37C28.5375 6.25941 28.4924 6.15405 28.4142 6.07583C28.3359 5.99761 28.2306 5.95254 28.12 5.95V5.95ZM28.12 5.83C28.42 5.83 28.66 6.07 28.66 6.37C28.66 6.67 28.42 6.91 28.12 6.91C27.82 6.91 27.58 6.67 27.58 6.37C27.57 6.07 27.82 5.83 28.12 5.83ZM27.13 4.82C26.9 4.82 26.71 5.01 26.71 5.24C26.71 5.47 26.9 5.66 27.13 5.66C27.36 5.66 27.55 5.47 27.55 5.24C27.55 5.01 27.36 4.82 27.13 4.82ZM27.13 4.7C27.43 4.7 27.67 4.94 27.67 5.24C27.67 5.54 27.43 5.78 27.13 5.78C26.83 5.78 26.59 5.54 26.59 5.24C26.59 4.95 26.83 4.7 27.13 4.7ZM25.84 3.97C25.61 3.97 25.42 4.16 25.42 4.39C25.42 4.62 25.61 4.81 25.84 4.81C26.07 4.81 26.26 4.62 26.26 4.39C26.26 4.16 26.07 3.97 25.84 3.97V3.97ZM25.84 3.85C26.14 3.85 26.38 4.09 26.38 4.39C26.38 4.69 26.14 4.93 25.84 4.93C25.54 4.93 25.3 4.69 25.3 4.39C25.3 4.09 25.54 3.85 25.84 3.85V3.85ZM24.5 3.48C24.27 3.48 24.08 3.67 24.08 3.9C24.08 4.13 24.27 4.32 24.5 4.32C24.73 4.32 24.92 4.13 24.92 3.9C24.92 3.67 24.73 3.48 24.5 3.48V3.48ZM24.5 3.36C24.8 3.36 25.04 3.6 25.04 3.9C25.04 4.2 24.8 4.43 24.5 4.43C24.2 4.43 23.96 4.19 23.96 3.89C23.96 3.59 24.2 3.36 24.5 3.36V3.36ZM23.13 3.24C22.9 3.24 22.71 3.43 22.71 3.66C22.71 3.89 22.9 4.08 23.13 4.08C23.36 4.08 23.55 3.89 23.55 3.66C23.55 3.43 23.36 3.24 23.13 3.24V3.24ZM23.13 3.12C23.43 3.12 23.67 3.36 23.67 3.66C23.67 3.96 23.43 4.2 23.13 4.2C22.83 4.2 22.59 3.96 22.59 3.66C22.59 3.36 22.83 3.12 23.13 3.12V3.12ZM10.14 14.22C10.51 14.02 10.64 13.56 10.44 13.2C10.24 12.84 9.78 12.7 9.41 12.9C9.05 13.1 8.91 13.55 9.11 13.92C9.32 14.29 9.78 14.42 10.14 14.22ZM10.2 14.33C9.99683 14.4414 9.75792 14.4682 9.53513 14.4045C9.31234 14.3409 9.12364 14.1919 9.01 13.99C8.95465 13.8897 8.91979 13.7795 8.90744 13.6656C8.89509 13.5517 8.9055 13.4366 8.93807 13.3268C8.97064 13.217 9.02471 13.1147 9.09715 13.026C9.16958 12.9373 9.25893 12.8639 9.36 12.81C9.56316 12.6986 9.80207 12.6718 10.0249 12.7355C10.2477 12.7991 10.4364 12.9481 10.55 13.15C10.78 13.57 10.63 14.1 10.2 14.33ZM15.53 11.68C15.93 11.58 16.18 11.17 16.07 10.77C16.0183 10.5772 15.8928 10.4125 15.7207 10.3115C15.5485 10.2104 15.3435 10.1812 15.15 10.23C14.75 10.33 14.5 10.74 14.61 11.14C14.72 11.55 15.13 11.79 15.53 11.68ZM15.56 11.8C15.4484 11.8289 15.3322 11.8355 15.218 11.8195C15.1038 11.8035 14.9939 11.7651 14.8945 11.7066C14.7952 11.6481 14.7083 11.5706 14.6389 11.4785C14.5695 11.3865 14.5189 11.2816 14.49 11.17C14.37 10.7 14.65 10.23 15.12 10.11C15.59 9.99 16.07 10.27 16.19 10.74C16.31 11.21 16.03 11.68 15.56 11.8V11.8ZM21.8 10.9C22.22 10.9 22.56 10.56 22.56 10.15C22.56 9.74 22.22 9.4 21.8 9.4C21.38 9.4 21.04 9.74 21.04 10.15C21.04 10.56 21.38 10.9 21.8 10.9ZM21.8 11.02C21.5683 11.02 21.346 10.9287 21.1813 10.7658C21.0165 10.6029 20.9226 10.3817 20.92 10.15C20.92 9.67 21.31 9.28 21.8 9.28C22.28 9.28 22.68 9.67 22.68 10.15C22.67 10.63 22.28 11.02 21.8 11.02ZM14.47 9.59C14.7 9.59 14.89 9.4 14.89 9.17C14.89 8.94 14.7 8.75 14.47 8.75C14.24 8.75 14.05 8.94 14.05 9.17C14.05 9.41 14.24 9.59 14.47 9.59ZM14.47 9.71C14.17 9.71 13.93 9.47 13.93 9.17C13.93 8.87 14.17 8.63 14.47 8.63C14.77 8.63 15.01 8.87 15.01 9.17C15.01 9.47 14.77 9.71 14.47 9.71V9.71ZM14.82 8.1C15.05 8.1 15.24 7.91 15.24 7.68C15.24 7.45 15.05 7.26 14.82 7.26C14.59 7.26 14.4 7.45 14.4 7.68C14.4 7.91 14.59 8.1 14.82 8.1ZM14.82 8.22C14.52 8.22 14.28 7.98 14.28 7.68C14.28 7.38 14.52 7.14 14.82 7.14C15.12 7.14 15.36 7.38 15.36 7.68C15.36 7.98 15.12 8.22 14.82 8.22ZM9.62 12.04C9.85 12.04 10.04 11.85 10.04 11.62C10.04 11.39 9.85 11.2 9.62 11.2C9.39 11.2 9.2 11.39 9.2 11.62C9.2 11.85 9.39 12.04 9.62 12.04ZM9.62 12.15C9.32 12.15 9.08 11.91 9.08 11.61C9.08 11.31 9.32 11.07 9.62 11.07C9.92 11.07 10.16 11.31 10.16 11.61C10.16 11.92 9.92 12.15 9.62 12.15V12.15ZM9.97 10.54C10.2 10.54 10.39 10.35 10.39 10.12C10.39 9.89 10.2 9.7 9.97 9.7C9.74 9.7 9.55 9.89 9.55 10.12C9.55 10.36 9.73 10.54 9.97 10.54ZM9.97 10.66C9.67 10.66 9.43 10.42 9.43 10.12C9.43 9.82 9.67 9.58 9.97 9.58C10.27 9.58 10.51 9.82 10.51 10.12C10.51 10.42 10.26 10.66 9.97 10.66V10.66ZM10.59 9.23C10.82 9.23 11.01 9.04 11.01 8.81C11.01 8.58 10.83 8.4 10.59 8.4C10.36 8.4 10.17 8.59 10.17 8.82C10.17 9.05 10.36 9.23 10.59 9.23ZM10.59 9.35C10.29 9.35 10.05 9.11 10.05 8.81C10.05 8.51 10.29 8.27 10.59 8.27C10.89 8.27 11.13 8.51 11.13 8.81C11.13 9.11 10.89 9.35 10.59 9.35V9.35ZM11.59 8.07C11.82 8.07 12.01 7.88 12.01 7.65C12.01 7.42 11.82 7.23 11.59 7.23C11.36 7.23 11.17 7.42 11.17 7.65C11.17 7.88 11.36 8.07 11.59 8.07ZM11.59 8.19C11.29 8.19 11.05 7.95 11.05 7.65C11.05 7.35 11.29 7.11 11.59 7.11C11.89 7.11 12.13 7.35 12.13 7.65C12.13 7.95 11.89 8.19 11.59 8.19ZM12.82 7.19C13.05 7.19 13.24 7 13.24 6.77C13.24 6.54 13.05 6.35 12.82 6.35C12.59 6.35 12.4 6.54 12.4 6.77C12.4 7 12.58 7.19 12.82 7.19ZM12.82 7.31C12.52 7.31 12.28 7.07 12.28 6.77C12.28 6.47 12.52 6.23 12.82 6.23C13.12 6.23 13.36 6.47 13.36 6.77C13.36 7.07 13.12 7.31 12.82 7.31ZM14.13 6.67C14.36 6.67 14.55 6.48 14.55 6.25C14.55 6.02 14.36 5.83 14.13 5.83C13.9 5.83 13.71 6.02 13.71 6.25C13.71 6.49 13.9 6.67 14.13 6.67ZM14.13 6.79C13.83 6.79 13.59 6.55 13.59 6.25C13.59 5.95 13.83 5.71 14.13 5.71C14.43 5.71 14.67 5.95 14.67 6.25C14.68 6.55 14.43 6.79 14.13 6.79V6.79ZM15.48 6.79C15.71 6.79 15.9 6.6 15.9 6.37C15.9 6.14 15.71 5.95 15.48 5.95C15.25 5.95 15.06 6.14 15.06 6.37C15.06 6.6 15.25 6.79 15.48 6.79ZM15.48 6.91C15.18 6.91 14.94 6.67 14.94 6.37C14.94 6.07 15.18 5.83 15.48 5.83C15.78 5.83 16.02 6.07 16.02 6.37C16.02 6.67 15.78 6.91 15.48 6.91ZM16.47 5.66C16.7 5.66 16.89 5.47 16.89 5.24C16.89 5.01 16.7 4.82 16.47 4.82C16.24 4.82 16.05 5.01 16.05 5.24C16.04 5.47 16.23 5.66 16.47 5.66ZM16.47 5.78C16.17 5.78 15.93 5.54 15.93 5.24C15.93 4.94 16.17 4.7 16.47 4.7C16.77 4.7 17.01 4.94 17.01 5.24C17.01 5.54 16.76 5.78 16.47 5.78ZM17.75 4.81C17.98 4.81 18.17 4.62 18.17 4.39C18.17 4.16 17.98 3.97 17.75 3.97C17.52 3.97 17.33 4.16 17.33 4.39C17.33 4.62 17.52 4.81 17.75 4.81ZM17.75 4.93C17.45 4.93 17.21 4.69 17.21 4.39C17.21 4.09 17.45 3.85 17.75 3.85C18.05 3.85 18.29 4.09 18.29 4.39C18.29 4.69 18.05 4.93 17.75 4.93ZM19.09 4.31C19.32 4.31 19.51 4.12 19.51 3.89C19.51 3.66 19.32 3.47 19.09 3.47C18.86 3.47 18.67 3.66 18.67 3.89C18.67 4.12 18.86 4.31 19.09 4.31ZM19.09 4.43C18.79 4.43 18.55 4.19 18.55 3.89C18.55 3.59 18.79 3.35 19.09 3.35C19.39 3.35 19.63 3.59 19.63 3.89C19.63 4.19 19.39 4.43 19.09 4.43ZM21.8 8.4C22.03 8.4 22.22 8.21 22.22 7.98C22.22 7.75 22.03 7.56 21.8 7.56C21.57 7.56 21.38 7.75 21.38 7.98C21.38 8.21 21.57 8.4 21.8 8.4ZM21.8 8.52C21.5 8.52 21.26 8.28 21.26 7.98C21.26 7.68 21.5 7.44 21.8 7.44C22.1 7.44 22.34 7.68 22.34 7.98C22.34 8.28 22.1 8.52 21.8 8.52ZM21.8 6.89C22.03 6.89 22.22 6.7 22.22 6.47C22.22 6.24 22.03 6.05 21.8 6.05C21.57 6.05 21.38 6.24 21.38 6.47C21.38 6.7 21.57 6.89 21.8 6.89ZM21.8 7.01C21.5 7.01 21.26 6.77 21.26 6.47C21.26 6.17 21.5 5.93 21.8 5.93C22.1 5.93 22.34 6.17 22.34 6.47C22.34 6.77 22.1 7.01 21.8 7.01ZM21.8 5.37C22.03 5.37 22.22 5.18 22.22 4.95C22.22 4.72 22.03 4.53 21.8 4.53C21.57 4.53 21.38 4.72 21.38 4.95C21.38 5.19 21.57 5.37 21.8 5.37ZM21.8 5.49C21.5 5.49 21.26 5.25 21.26 4.95C21.26 4.65 21.5 4.41 21.8 4.41C22.1 4.41 22.34 4.65 22.34 4.95C22.34 5.25 22.1 5.49 21.8 5.49ZM20.47 4.08C20.7 4.08 20.89 3.89 20.89 3.66C20.89 3.43 20.7 3.24 20.47 3.24C20.24 3.24 20.05 3.43 20.05 3.66C20.04 3.89 20.23 4.08 20.47 4.08ZM20.47 4.2C20.17 4.2 19.93 3.96 19.93 3.66C19.93 3.36 20.17 3.12 20.47 3.12C20.77 3.12 21.01 3.36 21.01 3.66C21.0074 3.80242 20.9497 3.93828 20.849 4.039C20.7483 4.13972 20.6124 4.19743 20.47 4.2V4.2ZM34.18 12.91C34.0935 12.8621 33.9983 12.8318 33.9 12.821C33.8017 12.8101 33.7022 12.8189 33.6073 12.8468C33.5124 12.8747 33.424 12.9212 33.3472 12.9836C33.2704 13.0459 33.2068 13.1229 33.16 13.21C32.96 13.57 33.09 14.03 33.46 14.23C33.83 14.43 34.29 14.3 34.49 13.94C34.68 13.56 34.54 13.11 34.18 12.91V12.91ZM34.24 12.8C34.67 13.03 34.82 13.56 34.59 13.98C34.4764 14.1819 34.2877 14.3309 34.0649 14.3945C33.8421 14.4582 33.6032 14.4314 33.4 14.32C33.2994 14.2657 33.2106 14.1918 33.1389 14.1028C33.0672 14.0137 33.0139 13.9113 32.9822 13.8014C32.9506 13.6915 32.9412 13.5764 32.9545 13.4629C32.9679 13.3493 33.0037 13.2395 33.06 13.14C33.28 12.72 33.81 12.57 34.24 12.8ZM11.21 13.1C11.1 12.8 10.95 12.58 10.63 12.49C10.83 9.91 11.5 8.73 13.85 7.55C14.05 7.62 14.05 7.65 14.05 7.69C14.05 8.04 14.25 8.21 14.5 8.4C14.08 8.49 13.71 8.68 13.71 9.18C13.71 9.6 13.99 9.83 14.36 9.93C14.24 10.16 14.22 10.26 14.24 10.52C13.76 10.75 13.66 11.05 13.78 11.53C13.96 12.22 14.38 12.29 15.04 12.12C15.14 13.19 13.95 13.6 13.37 12.83C13.37 12.77 13.36 12.71 13.35 12.64C13.2984 12.4445 13.1719 12.2771 12.9979 12.1742C12.8238 12.0712 12.6162 12.041 12.42 12.09C12.01 12.19 11.76 12.61 11.87 13.02C11.9 13.15 11.97 13.26 12.06 13.36C12.1 13.74 11.93 14.1 11.59 14.28C11.24 14.47 10.97 14.39 10.63 14.27C11.18 14.01 11.46 13.75 11.21 13.1V13.1ZM11.25 10.31C11.02 10.89 10.9 11.55 10.83 12.36C11.11 12.48 11.28 12.76 11.39 13.04C11.55 13.47 11.56 13.91 11.09 14.24C11.23 14.25 11.37 14.22 11.5 14.15C11.76 14.01 11.9 13.73 11.89 13.46C11.7995 13.3526 11.7346 13.2261 11.7 13.09C11.6394 12.8487 11.6769 12.5932 11.8044 12.3795C11.9319 12.1658 12.1388 12.0113 12.38 11.95C12.5002 11.9184 12.6254 11.9109 12.7485 11.928C12.8716 11.9451 12.9901 11.9865 13.097 12.0498C13.204 12.113 13.2974 12.1969 13.3717 12.2965C13.446 12.3961 13.4998 12.5094 13.53 12.63L13.56 12.79C13.99 13.31 14.85 13.04 14.89 12.36C14.1 12.52 13.76 12.12 13.63 11.59C13.51 11.14 13.56 10.7 14.08 10.42C14.08 10.28 14.1 10.15 14.14 10.04C13.9985 9.98065 13.8735 9.88772 13.7759 9.76924C13.6783 9.65076 13.6111 9.5103 13.58 9.36C13.13 9.46 12.62 9.59 12.2 9.75C11.78 9.91 11.47 10.11 11.25 10.31V10.31ZM13.88 7.74C12.57 8.42 11.8 9.11 11.35 10.08C11.59 9.9 11.85 9.76 12.13 9.65C12.55 9.49 13.08 9.35 13.53 9.25V9.19C13.53 8.8 13.77 8.46 14.12 8.32C13.9762 8.15966 13.8916 7.95503 13.88 7.74V7.74ZM32.02 14.3C31.67 14.11 31.51 13.76 31.55 13.38C31.64 13.28 31.7 13.17 31.74 13.04C31.7655 12.9428 31.7715 12.8415 31.7576 12.742C31.7437 12.6425 31.7102 12.5467 31.659 12.4602C31.6079 12.3738 31.5401 12.2983 31.4596 12.2381C31.3791 12.178 31.2875 12.1345 31.19 12.11C30.78 12.01 30.36 12.25 30.26 12.66C30.24 12.72 30.24 12.78 30.24 12.85C29.66 13.62 28.47 13.21 28.57 12.14C29.23 12.3 29.65 12.23 29.83 11.55C29.96 11.06 29.85 10.76 29.37 10.54C29.39 10.27 29.37 10.18 29.25 9.95C29.61 9.84 29.9 9.61 29.9 9.19C29.9 8.69 29.52 8.5 29.1 8.41C29.35 8.22 29.55 8.05 29.55 7.7C29.55 7.67 29.55 7.64 29.54 7.61L29.71 7.56C32.05 8.72 32.77 9.94 32.97 12.5C32.65 12.6 32.51 12.82 32.39 13.11C32.14 13.76 32.43 14.02 32.99 14.3C32.64 14.41 32.37 14.49 32.02 14.3V14.3ZM30.05 9.36C29.99 9.67 29.77 9.92 29.49 10.04C29.53 10.15 29.55 10.28 29.55 10.42C30.07 10.69 30.11 11.14 30 11.59C29.86 12.12 29.53 12.52 28.74 12.36C28.78 13.04 29.64 13.31 30.07 12.79C30.07 12.74 30.08 12.68 30.1 12.63C30.23 12.13 30.75 11.82 31.25 11.95C31.4045 11.9877 31.5468 12.0644 31.6634 12.1726C31.78 12.2808 31.8669 12.4171 31.916 12.5684C31.9651 12.7197 31.9747 12.881 31.9439 13.0371C31.9131 13.1931 31.8429 13.3387 31.74 13.46C31.71 13.91 32.09 14.27 32.53 14.24C32.06 13.91 32.06 13.47 32.23 13.04C32.34 12.76 32.51 12.48 32.78 12.36C32.71 11.55 32.59 10.88 32.36 10.3C32.14 10.11 31.83 9.9 31.44 9.75C31.01 9.59 30.5 9.46 30.05 9.36V9.36ZM29.72 7.71C29.71 7.94 29.62 8.15 29.48 8.31C29.83 8.45 30.07 8.79 30.07 9.18V9.24C30.54 9.34 31.03 9.47 31.47 9.64C31.78 9.76 32.04 9.92 32.25 10.07C31.8 9.11 31.03 8.41 29.72 7.71ZM26.98 15.76L25.65 14.84L27.26 14.67L28.59 15.59L26.98 15.76ZM24.49 15.22C24.19 15.22 23.95 14.98 23.95 14.68C23.95 14.38 24.19 14.14 24.49 14.14C24.79 14.14 25.03 14.38 25.03 14.68C25.04 14.98 24.79 15.22 24.49 15.22ZM24.49 15.1C24.72 15.1 24.91 14.91 24.91 14.68C24.91 14.45 24.72 14.26 24.49 14.26C24.26 14.26 24.07 14.45 24.07 14.68C24.07 14.91 24.26 15.1 24.49 15.1ZM13.9 16.5C14.13 16.5 14.32 16.31 14.32 16.08C14.32 15.85 14.13 15.66 13.9 15.66C13.67 15.66 13.48 15.85 13.48 16.08C13.48 16.31 13.67 16.5 13.9 16.5ZM13.9 16.61C13.6 16.61 13.36 16.37 13.36 16.07C13.36 15.77 13.6 15.53 13.9 15.53C14.2 15.53 14.44 15.77 14.44 16.07C14.44 16.38 14.2 16.61 13.9 16.61V16.61ZM19.1 15.1C19.33 15.1 19.52 14.91 19.52 14.68C19.52 14.45 19.33 14.26 19.1 14.26C18.87 14.26 18.68 14.45 18.68 14.68C18.68 14.91 18.87 15.1 19.1 15.1ZM19.1 15.22C18.8 15.22 18.56 14.98 18.56 14.68C18.56 14.38 18.8 14.14 19.1 14.14C19.4 14.14 19.64 14.38 19.64 14.68C19.64 14.98 19.4 15.22 19.1 15.22ZM29.69 16.5C29.92 16.5 30.11 16.31 30.11 16.08C30.11 15.85 29.92 15.66 29.69 15.66C29.46 15.66 29.27 15.85 29.27 16.08C29.27 16.31 29.46 16.5 29.69 16.5ZM29.69 16.61C29.39 16.61 29.15 16.37 29.15 16.07C29.15 15.77 29.39 15.53 29.69 15.53C29.99 15.53 30.23 15.77 30.23 16.07C30.23 16.38 29.99 16.61 29.69 16.61ZM16.61 15.76L15 15.59L16.33 14.67L17.94 14.84L16.61 15.76ZM23.14 14.55L21.79 14.05L20.44 14.55L21.79 15.05L23.14 14.55ZM23.49 14.55L21.8 15.18L20.11 14.55L21.8 13.92L23.49 14.55ZM171.82 26.87V44.67H168.46V43.01C167.58 44.5 166.06 45.02 164.64 45.02C160.78 45.02 159.17 41.55 159.17 37.93C159.17 33.37 161.71 31.14 164.56 31.14C166.77 31.14 167.8 32.36 168.33 33.2L168.38 26.88H171.82V26.87ZM162.69 38.18C162.69 39.74 163.3 42.17 165.51 42.17C167.69 42.17 168.55 40.34 168.55 38.38C168.55 36.28 167.97 34.14 165.61 34.14C163.42 34.14 162.69 36.1 162.69 38.18ZM54.18 28.93V34.97H59.68C61.42 34.97 63.25 34.52 63.25 31.9C63.25 29.15 61.27 28.93 60.1 28.93H54.18ZM54.18 37.03V44.67H51.8V26.87H59.92C62.8 26.87 65.69 27.88 65.69 31.65C65.69 34.27 64.37 35.24 63.26 35.91C64.26 36.33 65.27 36.78 65.36 39.26L65.51 42.49C65.53 43.48 65.66 43.85 66.39 44.27V44.67H63.48C63.14 43.58 63.06 40.87 63.06 40.2C63.06 38.73 62.77 37.02 59.92 37.02H54.18V37.03ZM69.86 37.18H76.98C76.86 35.16 76.03 33.29 73.41 33.29C71.42 33.29 69.86 35.16 69.86 37.18V37.18ZM76.88 40.62H79.02C78.95 41.24 78.36 43.07 76.75 44.16C76.16 44.56 75.33 45.06 73.28 45.06C69.68 45.06 67.55 42.31 67.55 38.57C67.55 34.54 69.46 31.35 73.69 31.35C77.39 31.35 79.19 34.32 79.19 38.92H69.85C69.85 41.62 71.1 43.18 73.57 43.18C75.61 43.17 76.8 41.58 76.88 40.62V40.62ZM88.83 40.19V38.05C88.49 38.32 87.95 38.52 85.29 38.87C84.24 39.02 82.55 39.34 82.55 40.98C82.55 42.39 83.26 43.24 84.87 43.24C86.87 43.24 88.83 41.93 88.83 40.19V40.19ZM82.92 35.65H80.95C81.05 32.55 83.07 31.34 86.23 31.34C87.26 31.34 90.97 31.64 90.97 34.95V42.42C90.97 42.97 91.24 43.19 91.68 43.19C91.88 43.19 92.14 43.14 92.39 43.09V44.67C92.02 44.77 91.7 44.92 91.22 44.92C89.32 44.92 89.02 43.93 88.95 42.94C88.12 43.86 86.82 45.05 84.33 45.05C81.98 45.05 80.32 43.54 80.32 41.31C80.32 40.22 80.64 37.68 84.2 37.24L87.75 36.79C88.27 36.74 88.88 36.54 88.88 35.25C88.88 33.89 87.9 33.14 85.87 33.14C83.41 33.14 83.07 34.65 82.92 35.65V35.65ZM96.08 26.87V44.67H93.94V26.87H96.08V26.87ZM116.97 44.68H113.54V36.68C113.54 34.72 112.69 34.08 111.68 34.08C109.97 34.08 109.37 35.22 109.37 36.78V44.69H105.94V36.76C105.94 35.65 105.94 34.08 103.89 34.08C102.28 34.08 101.77 35.22 101.77 36.66V44.69H98.34V31.49H101.62V33.42C102.11 32.55 103.06 31.14 105.35 31.14C107.23 31.14 108.09 31.84 108.97 33.25C109.41 32.6 110.36 31.14 112.44 31.14C114.98 31.14 116.96 32.65 116.96 35.56V44.68H116.97ZM126.3 39.94V38.26C125.95 38.53 125.39 38.76 123.97 38.97C122.7 39.19 121.65 39.52 121.65 40.95C121.65 42.17 122.58 42.54 123.24 42.54C124.76 42.54 126.3 41.55 126.3 39.94V39.94ZM129.65 34.96V42.1C129.65 43.66 129.99 44.01 130.41 44.16V44.68H126.71C126.51 44.06 126.47 43.86 126.39 43.12C125.61 43.94 124.51 45.03 122.18 45.03C120.22 45.03 118.21 43.91 118.21 41.18C118.21 38.6 119.83 37.29 122.01 36.97L125.09 36.5C125.63 36.43 126.29 36.2 126.29 35.46C126.29 34 124.92 33.92 124.03 33.92C122.32 33.92 122.02 34.99 121.93 35.75H118.62C119.01 31.71 121.78 31.14 124.45 31.14C126.3 31.14 129.65 31.71 129.65 34.96ZM134.44 38.18C134.44 39.74 135.05 42.17 137.26 42.17C139.44 42.17 140.3 40.34 140.3 38.38C140.3 36.28 139.71 34.14 137.36 34.14C135.18 34.14 134.44 36.1 134.44 38.18ZM143.58 26.87V44.67H140.23V43.01C139.35 44.5 137.83 45.02 136.41 45.02C132.55 45.02 130.94 41.55 130.94 37.93C130.94 33.37 133.47 31.14 136.33 31.14C138.54 31.14 139.56 32.36 140.1 33.2L140.15 26.88H143.58V26.87ZM145.61 31.49H148.89V33.77C149.65 32.43 150.43 31.14 152.51 31.14C152.73 31.14 152.95 31.16 153.17 31.19V34.73C152.88 34.68 152.51 34.68 152.19 34.68C149.52 34.68 149.03 36.36 149.03 37.82V44.68H145.6V31.49H145.61ZM157.67 31.49V44.68H154.24V31.49H157.67V31.49ZM157.67 26.7V29.93H154.24V26.7H157.67V26.7Z" fill="#004996"/>
</svg>
